<svg version="1" xmlns="http://www.w3.org/2000/svg" width="369.3" height="369.3" viewBox="0 0 277 277">
  <path fill="#2d004f" d="M108 1.4c-5.5 1.7-9 4.3-15.5 11.6A171.3 171.3 0 0 1 74 29.1a291.9 291.9 0 0 0-33.5 27.7A388.3 388.3 0 0 1 25.1 71C13.5 80.9 9 86 5.7 93.2c-4.1 8.7-4.5 22.9-1.1 37.6a1097 1097 0 0 0 13.6 53.7c4.1 12 16.8 34.3 23.5 41.2l6.4 6.9a112 112 0 0 0 52.9 31.8c11.6 3.7 18.7 5.2 29.5 6.2 3.3.4 8 1.3 10.4 2.1a63.4 63.4 0 0 0 10.1 2.8c8.2 2.6 18.3-.2 28.7-8 3.9-2.9 10.9-7.2 15.5-9.6a137.1 137.1 0 0 0 46.5-36.9 136 136 0 0 0 18.3-39.8c3.2-9.7 7.1-20.9 8.8-24.8 1.6-4 3.3-8.5 3.6-10l1.2-5.4a69 69 0 0 0-.2-22.7A95.3 95.3 0 0 0 260 92.5c-2.5-3.9-7.2-11.3-10.3-16.6a126 126 0 0 0-32.7-38 155.3 155.3 0 0 0-69.1-27.4c-7.6-.8-11.5-2-20-5.9C119.5.8 113.1-.3 108 1.4zm79.7 24.1a87 87 0 0 1 18.2 9.5c-.3 0-4.6-1.9-9.5-4.1L182 24.4c-3-1.3-4.9-2.3-4.2-2.4.7 0 5.2 1.6 9.9 3.5zm-8.6 1.4c8.6 2.9 20.8 8.7 24.4 11.5 1.1.9-2.5-.5-8-3a325 325 0 0 0-16-7c-9.3-3.5-11.1-4.3-9.9-4.3.5-.1 4.8 1.2 9.5 2.8zm-14.4.7c-.3.3-1.2.4-1.9.1-.8-.3-.5-.6.6-.6 1.1-.1 1.7.2 1.3.5zm12.5 3c8.2 2.6 18.6 7.4 24.3 11.3 4.5 3.1 2.7 2.6-8.1-2.5-5.5-2.5-13.9-6.1-18.9-8-10.7-3.9-9-4.5 2.7-.8zm-18.2-.2a87.8 87.8 0 0 1 30.5 9.8c15.3 7.7 16.7 10.3 1.9 3.3A159.4 159.4 0 0 0 159.6 32c-4.3-1-8.1-2.2-8.5-2.6-.3-.3.3-.4 1.4-.1 1.1.3 4 .8 6.5 1.1zm-81 1c0 .2-4.4 3.6-9.7 7.6-5.4 4-12.7 9.8-16.3 12.9-7.2 6.3-7.1 5.2.4-2.7A80.5 80.5 0 0 1 72 34.1c5.9-3.2 6-3.3 6-2.7zm68.6 2.5c-.5.8-5.6.3-5.6-.5 0-.2 1.4-.4 3.1-.4 1.6 0 2.8.4 2.5.9zm15.8 1.2c11.6 2.1 26 8.1 35.6 14.5 5 3.4 2.3 3-6.7-1.2A153.3 153.3 0 0 0 156 35.9c-3.6-.7-6.9-1.6-7.5-2.1-1-.9 5.5-.3 13.9 1.3zM82 34.5c0 .2-2.8 2.3-6.2 4.6-6.6 4.4-18.8 14-24.7 19.3l-3.5 3.1 3.1-4a78.2 78.2 0 0 1 24.8-20.3c6.7-3.5 6.5-3.4 6.5-2.7zm-.6 6.3A323.6 323.6 0 0 0 53 62.5l-2.5 2 1.5-2c2.8-3.9 14-14.5 18.2-17.2A92 92 0 0 1 86.4 37c.5 0-1.7 1.7-5 3.8zm78.5-2.1a90.8 90.8 0 0 1 36.4 15c3.7 3 2.1 2.9-5-.3-8.9-4-10.5-4.5-9.8-3.4.3.6 1.2 1 1.9 1 2.1 0 14.2 8.3 12.8 8.8-.7.2-3.6-.8-6.4-2.2-5.1-2.6-8-3.5-4.3-1.3s8.5 6.1 8.5 6.9c0 .9-2.7-.1-10.8-3.8-9.7-4.5-18.4-7.5-26.8-9.4-8.4-1.8-27.8-2.7-28.7-1.3-.3.4 3.1.7 7.5.5 14.4-.6 35.7 4.4 47.3 11.2 7.9 4.7 11.1 8.9 15.5 20.4 5.4 14.3 6.7 16.6 12 21.5 13.9 13.1 15.5 15 17.8 22a50.1 50.1 0 0 1-1.3 37.2c-2.5 5.7-4.6 7.4-12.3 9.9-8.5 2.8-10.9 7-8.2 14.2 3.2 8.4.6 15.1-9.9 25.3a77.4 77.4 0 0 1-67.3 19.6 30.8 30.8 0 0 1-18.3-8.1c-5.7-5-10.6-7.7-22.3-12.3-16.5-6.4-22.4-10.6-28.7-20.6a99.8 99.8 0 0 1-12-35.8c-.7-5.4-.8-18.6 0-22.2 2.4-11.6 4-14.9 9.7-20.7 7.2-7.3 7.7-8.4 8.4-16.1.8-8.6 3.2-13.2 10.5-20.5a92.3 92.3 0 0 1 41.8-22.9c3.7-1 5.9-1.9 5-2-2.3-.5-21.5 6.1-28.4 9.7a122.9 122.9 0 0 0-27.9 20.9l-2.9 2.6 2.1-3a88.4 88.4 0 0 1 32.7-25.9c3.4-1.3 7-2.3 18.5-5l5.5-1.5a55.6 55.6 0 0 1 15.3-2.2c2.3 0 4.2-.4 4.2-.8 0-.5-.6-.9-1.2-.8l-7.3-.2c-5.4-.2-5.7-.4-3-1.2 6.5-2 30.6.1 41 3.6 1.7.5 1.7.5.4-.4a109.7 109.7 0 0 0-24.4-5.7c-11.8-1.5-13.3-2.3-4.1-2.2 4.9.1 12.3.7 16.5 1.5zm-68.9.7a84 84 0 0 1-9.2 6.7 215.5 215.5 0 0 0-25.1 19.3c-3.7 3.4-4.7 3.4-1.6-.1a83.9 83.9 0 0 1 27.8-22.4c8.2-4.2 8.1-4.1 8.1-3.5zm5 3c0 .2-2.6 1.9-5.7 3.6-6 3.4-20.5 13.3-23.4 16l-6.4 6c-6.2 5.8-4.2 2.1 2.7-5a79.2 79.2 0 0 1 28.7-19.6c4.3-1.5 4.1-1.5 4.1-1zm2.2 4.6a111 111 0 0 0-12.5 7.1 157.4 157.4 0 0 0-23.6 18.3c-4.1 3.8-4.3 3.9-2.2.9C63 68.7 73.4 58.5 78.5 55a94.3 94.3 0 0 1 19-9.3c3.8-.9 4-.7.7 1.3zm.8 4.9a141.3 141.3 0 0 0-33.4 23c-4.1 3.8-4.5 4.1-2.8 1.5A77 77 0 0 1 97.2 50c8.8-3.2 9.8-2.2 1.8 1.9zm-54.3 79.3c-.3.7-.5.2-.5-1.2s.2-1.9.5-1.3c.2.7.2 1.9 0 2.5zm-.3 11c-.1 16.4 5 32.5 16.5 51.8 7.3 12.3 6.7 13.6-1.3 2.9-4.7-6.2-6.1-6.9-2.8-1.4l4.7 8c2.6 4.6 2.6 4.8.5 3-1.3-1.1-4-4.2-6.1-6.8-5.1-6.4-4.8-4.9.6 3.8 2.4 3.8 4.1 7.2 3.9 7.4-.6.7-6.3-6.1-10.5-12.4-2.1-3.3-3.9-5.7-3.9-5.2 0 .4 1.1 2.5 2.5 4.7a26 26 0 0 1 2.5 4.5c0 .3 1.5 2.9 3.3 5.8 5 7.9 5.2 8.5 1.6 4.7a101.3 101.3 0 0 1-22.3-41c-2.2-7.8-4.5-23-3.5-23 .5 0 .9.6 1 1.2.3 4.7 5.7 22.9 9.1 30.8 4 9 5.1 11.1 5.6 10.6.3-.3.1-1.1-.5-1.8-4-5.4-10-26.6-11-38.6-.6-8 .1-9.7 1-2.7a70 70 0 0 0 3.4 15.5l1.7 5.5c.5 2.8 5.9 15.4 7.2 17.1 1 1.2.8.5-.4-2.1-1.9-4.1-5.6-15.6-6.6-21-2-10.7-2.9-20.5-1.8-20.5.4 0 .8.8.8 1.7.2 6.6 2.6 18.2 5.6 26.3 4.8 13 7.4 16.5 3.3 4.5a101 101 0 0 1-5.6-37.3c.2-9.2 1.6-5.6 1.5 4zM31.9 184c4.5 11 13.1 26 20.9 36.3 2.4 3.1 4 5.7 3.7 5.7-1.6 0-10.4-10.5-16.6-19.9A106.2 106.2 0 0 1 21.5 155l-.5-7.5 4.4 15.5c2.4 8.5 5.3 18 6.5 21zm-1-17.6c2.3 8.2 5.7 18.2 7.7 22.4 3.6 7.6 12.6 22.8 17.3 29.2l2.6 3.5-3.6-3c-13.5-11.4-27.8-43.3-29.3-65.5-.5-7 .2-5.3 5.3 13.4zM18.3 152c2.6 13.8 9.1 34 14 43.5 3.6 7 16.5 26.9 19.8 30.5 9 10 8.8 9.7 3.4 5.3a81.8 81.8 0 0 1-17.6-19.8A142.1 142.1 0 0 1 17.3 160c-1.1-7.8-.2-14.7 1-8zm.8 20.5c4 14.6 9.5 26.6 18.3 40a144.4 144.4 0 0 0 25 29c.6.5 3 2.3 5.4 3.9 2.3 1.6 4.2 3.1 4.2 3.3 0 .5-.7.1-7-4.1A123.4 123.4 0 0 1 20.2 187c-4.7-12-9.1-33.7-7.4-36.5.3-.5 1.4 2.4 2.4 6.5l3.9 15.5zm190.3 62.8c-6.9 5.1-15.4 10.4-13.9 8.8 1.7-1.7 17.9-12.9 19-13 .5-.1-1.8 1.8-5.1 4.2zm8.1-.7a115 115 0 0 1-21.1 14.1c-.3-.2 1.5-1.6 4-3.1 2.4-1.4 5.1-3.2 5.8-3.9 1.8-1.7 14.2-10.6 14.8-10.6.3 0-1.3 1.5-3.5 3.5zm3.7 2.5a114.2 114.2 0 0 1-21.5 14.9c-1.5 0-.6-.7 7.8-6.3 3.9-2.6 9.3-6.5 12-8.6 6.5-5.2 7.1-5.1 1.7 0z"/>
  <path d="M143.8 44.7c.7.3 1.6.2 1.9-.1.4-.3-.2-.6-1.3-.5-1.1 0-1.4.3-.6.6zM149.9 45.3c.5.5 2.1.7 3.7.5 2.7-.3 2.6-.4-.8-.9-2.2-.3-3.4-.1-2.9.4zM163.5 48c2.7 1.2 4.3 1.2 2.5 0a7 7 0 0 0-3-.9c-1 0-.8.3.5.9zM177 52.5c1.4.8 3 1.4 3.5 1.4.6 0-.1-.6-1.5-1.4-1.4-.8-2.9-1.4-3.5-1.4-.5 0 .1.6 1.5 1.4zM51.6 185.3c.3 1 .9 1.5 1.2 1.2.3-.3 0-1.1-.7-1.8-1-.9-1.1-.8-.5.6zM49 189.6c0 .6.7 1.9 1.6 3 1.4 1.8 1.4 1.8.3-.6-1.4-3.1-1.9-3.6-1.9-2.4z"/>
</svg>
