<?xml version="1.0" encoding="UTF-8" standalone="no"?><!DOCTYPE svg PUBLIC "-//W3C//DTD SVG 1.1//EN" "http://www.w3.org/Graphics/SVG/1.1/DTD/svg11.dtd"><svg width="100%" height="100%" viewBox="0 0 500 500" version="1.1" xmlns="http://www.w3.org/2000/svg" xmlns:xlink="http://www.w3.org/1999/xlink" xml:space="preserve" xmlns:serif="http://www.serif.com/" style="fill-rule:evenodd;clip-rule:evenodd;stroke-linecap:round;stroke-linejoin:round;stroke-miterlimit:10;"><rect id="Page-2" serif:id="Page 2" x="0" y="0" width="500" height="500" style="fill:none;"/><g id="Layer-1" serif:id="Layer 1"><path d="M409.679,233.906l0,2.476" style="fill:none;stroke:#fff;stroke-width:7.51px;"/><path d="M409.679,250l0,16.095" style="fill:none;stroke:#fff;stroke-width:7.51px;"/><path d="M98.959,165.925c6.559,-9.079 16.904,-14.645 27.337,-18.718c10.433,-4.073 21.371,-6.996 31.223,-12.322c11.093,-5.997 20.442,-14.851 31.539,-20.844c11.095,-5.994 25.364,-8.729 35.997,-1.949c10.043,6.404 13.886,19.962 11.281,31.585c-2.605,11.623 -10.557,21.413 -19.734,29.006c-9.178,7.593 -19.686,13.379 -29.54,20.07c-10.055,6.827 -19.487,14.636 -30.164,20.442c-10.676,5.805 -23.032,9.549 -34.989,7.375c-22.852,-4.158 -36.829,-35.429 -22.95,-54.646" style="fill:#a4dc10;fill-rule:nonzero;"/><path d="M133.775,220.568c-22.853,-4.156 -36.829,-35.428 -22.95,-54.644c6.557,-9.079 16.904,-14.644 27.337,-18.717c10.432,-4.074 21.37,-6.996 31.222,-12.323c11.094,-5.997 20.443,-14.85 31.538,-20.843c4.715,-2.547 10.002,-4.501 15.34,-5.392c-8.958,-1.715 -18.957,0.936 -27.204,5.392c-11.095,5.993 -20.445,14.846 -31.539,20.843c-9.851,5.327 -20.79,8.249 -31.223,12.323c-10.432,4.073 -20.778,9.638 -27.336,18.717c-13.879,19.216 0.097,50.488 22.95,54.644c4.367,0.795 8.787,0.793 13.159,0.196c-0.432,-0.063 -0.863,-0.117 -1.294,-0.196" style="fill:#709509;fill-rule:nonzero;"/><path d="M109.895,167.331c6.558,-9.079 16.903,-14.645 27.336,-18.718c10.433,-4.073 21.371,-6.996 31.224,-12.322c11.093,-5.998 20.442,-14.851 31.538,-20.845c11.095,-5.994 25.364,-8.729 35.997,-1.948c10.043,6.404 13.886,19.962 11.282,31.585c-2.606,11.623 -10.558,21.413 -19.735,29.006c-9.178,7.593 -19.686,13.379 -29.539,20.07c-10.055,6.827 -19.488,14.635 -30.165,20.442c-10.676,5.805 -23.031,9.548 -34.988,7.374c-22.853,-4.158 -36.83,-35.429 -22.95,-54.644Z" style="fill:none;stroke:#623296;stroke-width:7.83px;"/><path d="M286.348,289.346c-17.24,9.984 -39.656,13.916 -50.18,30.833c-8.811,14.166 -5.341,33.898 5.86,46.263c11.201,12.364 28.632,17.847 45.305,17.248c16.672,-0.601 32.71,-6.686 47.471,-14.461c12.861,-6.776 25.254,-15.108 34.051,-26.68c13.255,-17.436 16.965,-40.366 16.922,-62.268c-0.025,-12.217 -1.141,-24.679 -5.957,-35.906c-4.818,-11.226 -13.814,-21.149 -25.51,-24.675c-8.617,-2.599 -18.928,-1.119 -26.076,4.513c-6.963,5.485 -5.81,13.099 -8.057,21.075c-5.14,18.243 -17.385,34.535 -33.829,44.058" style="fill:#b7edff;fill-rule:nonzero;"/><path d="M252.962,366.442c-11.2,-12.364 -14.671,-32.097 -5.859,-46.263c10.523,-16.917 32.939,-20.848 50.179,-30.833c16.446,-9.523 28.691,-25.815 33.829,-44.057c2.248,-7.977 1.095,-15.591 8.057,-21.076c3.456,-2.722 7.653,-4.465 12.039,-5.255c-7.896,-1.447 -16.666,0.286 -22.974,5.255c-6.962,5.485 -5.809,13.099 -8.056,21.076c-5.14,18.242 -17.385,34.534 -33.829,44.057c-17.24,9.985 -39.657,13.916 -50.18,30.833c-8.811,14.166 -5.342,33.899 5.859,46.263c11.202,12.364 28.633,17.848 45.306,17.248c1.056,-0.038 2.11,-0.1 3.161,-0.181c-14.147,-1.101 -28.065,-6.618 -37.532,-17.067" style="fill:#69caff;fill-rule:nonzero;"/><path d="M295.996,293.486c-17.24,9.984 -39.656,13.916 -50.18,30.833c-8.811,14.167 -5.341,33.898 5.86,46.263c11.201,12.364 28.632,17.848 45.305,17.248c16.672,-0.601 32.71,-6.685 47.471,-14.461c12.861,-6.775 25.254,-15.108 34.051,-26.68c13.255,-17.435 16.965,-40.366 16.922,-62.268c-0.024,-12.216 -1.141,-24.678 -5.957,-35.905c-4.818,-11.226 -13.814,-21.15 -25.51,-24.676c-8.617,-2.599 -18.928,-1.119 -26.076,4.513c-6.962,5.485 -5.81,13.1 -8.057,21.075c-5.14,18.243 -17.385,34.535 -33.829,44.058Z" style="fill:none;stroke:#623296;stroke-width:7.83px;"/><path d="M127.112,153.191c-1.027,-2.98 -2.054,-5.962 -3.081,-8.943" style="fill:none;stroke:#623296;stroke-width:7.83px;"/><path d="M149.782,143.074c-0.235,-2.333 -0.47,-4.665 -0.704,-6.998" style="fill:none;stroke:#623296;stroke-width:7.83px;"/><path d="M172.466,133.401c-0.24,-2.011 -0.479,-4.021 -0.719,-6.031" style="fill:none;stroke:#623296;stroke-width:7.83px;"/><path d="M195.906,116.752l0,-5.548" style="fill:none;stroke:#623296;stroke-width:7.83px;"/><path d="M217.7,108.612c1.039,-1.452 2.078,-2.904 3.117,-4.355" style="fill:none;stroke:#623296;stroke-width:7.83px;"/><path d="M231.647,109.379c2.085,-0.819 4.169,-1.638 6.254,-2.457" style="fill:none;stroke:#623296;stroke-width:7.83px;"/><path d="M245.596,123.987c1.528,0.161 3.056,0.321 4.583,0.482" style="fill:none;stroke:#623296;stroke-width:7.83px;"/><path d="M247.993,140.171c1.367,0.964 2.734,1.929 4.101,2.894" style="fill:none;stroke:#623296;stroke-width:7.83px;"/><path d="M228.977,174.147c0.721,1.288 1.442,2.575 2.163,3.863" style="fill:none;stroke:#623296;stroke-width:7.83px;"/><path d="M239.864,160.837c0.88,0.89 1.759,1.778 2.639,2.668" style="fill:none;stroke:#623296;stroke-width:7.83px;"/><path d="M210.573,187.603c0.737,2.193 1.474,4.387 2.211,6.58" style="fill:none;stroke:#623296;stroke-width:7.83px;"/><path d="M197.551,196.361c0.344,1.685 0.687,3.368 1.03,5.053" style="fill:none;stroke:#623296;stroke-width:7.83px;"/><path d="M181.909,206.725c0.311,2.092 0.621,4.185 0.931,6.276" style="fill:none;stroke:#623296;stroke-width:7.83px;"/><path d="M168.663,216.616c-0.239,2.332 -0.479,4.663 -0.719,6.995" style="fill:none;stroke:#623296;stroke-width:7.83px;"/><path d="M154.553,221.933l-0.709,7.479" style="fill:none;stroke:#623296;stroke-width:7.83px;"/><path d="M140.6,223.27c-1.313,1.585 -2.628,3.171 -3.941,4.756" style="fill:none;stroke:#623296;stroke-width:7.83px;"/><path d="M123.811,218.829c-1.765,1.131 -3.53,2.263 -5.295,3.394" style="fill:none;stroke:#623296;stroke-width:7.83px;"/><path d="M113.436,208.503c-1.77,0.482 -3.538,0.965 -5.307,1.447" style="fill:none;stroke:#623296;stroke-width:7.83px;"/><path d="M103.975,188.451c-1.284,-0.65 -2.567,-1.3 -3.851,-1.949" style="fill:none;stroke:#623296;stroke-width:7.83px;"/><path d="M103.167,173.411c-0.242,-1.205 -0.484,-2.411 -0.727,-3.617" style="fill:none;stroke:#623296;stroke-width:7.83px;"/><path d="M113.398,159.934c-0.562,-1.528 -1.125,-3.056 -1.687,-4.584" style="fill:none;stroke:#623296;stroke-width:7.83px;"/><path d="M384.754,237.484c2.782,-1.298 5.564,-2.597 8.346,-3.895" style="fill:none;stroke:#623296;stroke-width:5.79px;"/><path d="M388.557,243.813c2.789,-0.192 5.577,-0.385 8.366,-0.577" style="fill:none;stroke:#623296;stroke-width:5.79px;"/><path d="M393.379,251.51c2.358,-0.108 4.718,-0.215 7.076,-0.322" style="fill:none;stroke:#623296;stroke-width:5.79px;"/><path d="M393.059,263.741c2.462,-0.25 4.925,-0.499 7.387,-0.749" style="fill:none;stroke:#623296;stroke-width:5.79px;"/><path d="M395.309,272.736l6.111,0" style="fill:none;stroke:#623296;stroke-width:5.79px;"/><path d="M395.948,284.183c2.788,-0.083 5.576,-0.166 8.364,-0.25" style="fill:none;stroke:#623296;stroke-width:5.79px;"/><path d="M397.884,292.95c2.895,0.123 5.788,0.246 8.682,0.369" style="fill:none;stroke:#623296;stroke-width:5.79px;"/><path d="M396.597,302.642c2.462,0.869 4.924,1.737 7.386,2.605" style="fill:none;stroke:#623296;stroke-width:5.79px;"/><path d="M396.486,310.505c1.139,1.321 2.277,2.644 3.416,3.965" style="fill:none;stroke:#623296;stroke-width:5.79px;"/><path d="M392.668,321.372c1.81,1.729 3.619,3.458 5.429,5.187" style="fill:none;stroke:#623296;stroke-width:5.79px;"/><path d="M387.921,335.767c1.716,2.788 3.431,5.575 5.146,8.363" style="fill:none;stroke:#623296;stroke-width:5.79px;"/><path d="M379.012,348.586c0.957,1.935 1.913,3.868 2.87,5.802" style="fill:none;stroke:#623296;stroke-width:5.79px;"/><path d="M371.926,356.323c0.942,2.58 1.886,5.161 2.829,7.742" style="fill:none;stroke:#623296;stroke-width:5.79px;"/><path d="M364.205,363.096c0.337,2.142 0.675,4.283 1.013,6.425" style="fill:none;stroke:#623296;stroke-width:5.79px;"/><path d="M354.335,367.563c0.563,2.165 1.127,4.33 1.69,6.495" style="fill:none;stroke:#623296;stroke-width:5.79px;"/><path d="M346.423,373.724c0.536,2.358 1.072,4.717 1.608,7.076" style="fill:none;stroke:#623296;stroke-width:5.79px;"/><path d="M338.674,377.912c0.424,2.145 0.849,4.29 1.272,6.435" style="fill:none;stroke:#623296;stroke-width:5.79px;"/><path d="M330.045,381.119c0.212,1.716 0.424,3.431 0.636,5.146" style="fill:none;stroke:#623296;stroke-width:5.79px;"/><path d="M319.729,384.981l0,5.146" style="fill:none;stroke:#623296;stroke-width:5.79px;"/><path d="M309.688,386.306c-0.281,1.812 -0.562,3.624 -0.844,5.437" style="fill:none;stroke:#623296;stroke-width:5.79px;"/><path d="M301.705,388.674c-1.183,2.355 -2.365,4.713 -3.549,7.069" style="fill:none;stroke:#623296;stroke-width:5.79px;"/><path d="M293.73,388.773c-1.354,1.99 -2.709,3.981 -4.063,5.972" style="fill:none;stroke:#623296;stroke-width:5.79px;"/><path d="M283.481,387.01l-8.054,7.704" style="fill:none;stroke:#623296;stroke-width:5.79px;"/><path d="M273.407,385.21c-3.216,0.323 -6.432,0.646 -9.647,0.969" style="fill:none;stroke:#623296;stroke-width:5.79px;"/><path d="M378.378,230.701c1.656,-1.979 3.313,-3.958 4.969,-5.937" style="fill:none;stroke:#623296;stroke-width:5.79px;"/><path d="M370.928,225.796c0.732,-3.007 1.465,-6.013 2.197,-9.019" style="fill:none;stroke:#623296;stroke-width:5.79px;"/><path d="M363.598,222.552c-0.342,-3.429 -0.685,-6.857 -1.026,-10.286" style="fill:none;stroke:#623296;stroke-width:5.79px;"/><path d="M353.018,221.555c-0.771,-2.889 -1.542,-5.777 -2.313,-8.667" style="fill:none;stroke:#623296;stroke-width:5.79px;"/><path d="M346.438,225.123c-2.146,-2.248 -4.294,-4.497 -6.44,-6.746" style="fill:none;stroke:#623296;stroke-width:5.79px;"/><path d="M337.419,227.063c-2.562,-1.098 -5.124,-2.195 -7.686,-3.292" style="fill:none;stroke:#623296;stroke-width:5.79px;"/><path d="M331.554,236.864c-2.14,-1.08 -4.28,-2.161 -6.42,-3.242" style="fill:none;stroke:#623296;stroke-width:5.79px;"/><path d="M323.051,241.051c3.016,1.88 6.03,3.761 9.046,5.641c-0.445,0.085 -0.89,0.169 -1.334,0.254" style="fill:none;stroke:#623296;stroke-width:5.79px;"/><path d="M319.128,248.593c1.648,3.036 3.298,6.075 4.947,9.113" style="fill:none;stroke:#623296;stroke-width:5.79px;"/><path d="M320.817,269.048c-1.46,-2.554 -3.308,-4.886 -5.461,-6.891" style="fill:none;stroke:#623296;stroke-width:5.79px;"/><path d="M313.523,277.925c-1.155,-1.981 -2.31,-3.964 -3.465,-5.945" style="fill:none;stroke:#623296;stroke-width:5.79px;"/><path d="M305.621,287.591l-2.856,-6.091" style="fill:none;stroke:#623296;stroke-width:5.79px;"/><path d="M298.628,291.174c-1.511,-2.065 -2.583,-4.45 -3.126,-6.952" style="fill:none;stroke:#623296;stroke-width:5.79px;"/><path d="M290.73,296.849c-0.877,-2.943 -2.048,-5.8 -3.488,-8.512" style="fill:none;stroke:#623296;stroke-width:5.79px;"/><path d="M280.108,301.244l-2.49,-6.835" style="fill:none;stroke:#623296;stroke-width:5.79px;"/><path d="M270.695,304.934c-0.958,-1.975 -1.915,-3.948 -2.872,-5.923" style="fill:none;stroke:#623296;stroke-width:5.79px;"/><path d="M261.39,309.779c-2.193,-1.774 -4.386,-3.549 -6.579,-5.323" style="fill:none;stroke:#623296;stroke-width:5.79px;"/><path d="M254.445,313.807c-0.136,0.557 -0.745,0.886 -1.317,0.902c-0.572,0.018 -1.121,-0.201 -1.661,-0.389c-2.298,-0.8 -4.774,-1.085 -7.195,-0.83" style="fill:none;stroke:#623296;stroke-width:5.79px;"/><path d="M248.134,321.919c-3.247,1.056 -6.615,1.735 -10.017,2.021" style="fill:none;stroke:#623296;stroke-width:5.79px;"/><path d="M241.366,336.085c-3.394,0.661 -6.72,1.663 -9.914,2.985" style="fill:none;stroke:#623296;stroke-width:5.79px;"/><path d="M242.188,345.362l-6.996,3.615" style="fill:none;stroke:#623296;stroke-width:5.79px;"/><path d="M243.142,352.857c-1.908,1.871 -3.815,3.742 -5.724,5.614" style="fill:none;stroke:#623296;stroke-width:5.79px;"/><path d="M247.072,361.818c-1.54,2.011 -3.079,4.021 -4.619,6.031" style="fill:none;stroke:#623296;stroke-width:5.79px;"/><path d="M253.854,370.809c-1.973,2.088 -3.945,4.177 -5.917,6.265" style="fill:none;stroke:#623296;stroke-width:5.79px;"/><path d="M260.344,378.724c-3.525,0.894 -7.052,1.787 -10.577,2.681" style="fill:none;stroke:#623296;stroke-width:5.79px;"/><path d="M112.953,234.383l0,6.754" style="fill:none;stroke:#623296;stroke-width:5.79px;stroke-miterlimit:4;"/><path d="M112.953,263.579l0,81.833c0,10.067 8.162,18.23 18.229,18.23l55.988,0" style="fill:none;stroke:#623296;stroke-width:5.79px;stroke-miterlimit:4;stroke-dasharray:13.09,22.44;"/><path d="M198.391,363.641l6.755,0" style="fill:none;stroke:#623296;stroke-width:5.79px;stroke-miterlimit:4;"/><path d="M202.612,372.302l14.997,-8.66l-14.997,-8.66l0,17.32Z" style="fill:#623296;fill-rule:nonzero;"/><path d="M281.046,123.792l6.754,0" style="fill:none;stroke:#623296;stroke-width:5.79px;stroke-miterlimit:4;"/><path d="M309.28,123.792l24.901,0c9.764,0 17.68,7.915 17.68,17.68l0,38.628" style="fill:none;stroke:#623296;stroke-width:5.79px;stroke-miterlimit:4;stroke-dasharray:12.53,21.48;"/><path d="M351.862,190.84l0,6.754" style="fill:none;stroke:#623296;stroke-width:5.79px;stroke-miterlimit:4;"/><path d="M283.579,132.452l-14.997,-8.66l14.997,-8.66l0,17.32Z" style="fill:#623296;fill-rule:nonzero;"/></g></svg>