<?xml version="1.0" encoding="UTF-8" standalone="no"?><!DOCTYPE svg PUBLIC "-//W3C//DTD SVG 1.1//EN" "http://www.w3.org/Graphics/SVG/1.1/DTD/svg11.dtd"><svg width="100%" height="100%" viewBox="0 0 500 500" version="1.1" xmlns="http://www.w3.org/2000/svg" xmlns:xlink="http://www.w3.org/1999/xlink" xml:space="preserve" xmlns:serif="http://www.serif.com/" style="fill-rule:evenodd;clip-rule:evenodd;stroke-linecap:round;stroke-linejoin:round;stroke-miterlimit:10;"><rect id="Page-3" serif:id="Page 3" x="0" y="0" width="500" height="500" style="fill:none;"/><g id="Layer-1" serif:id="Layer 1"><path d="M192.333,71.022l0,127.328c0,15.3 8.702,29.267 22.435,36.011l70.464,34.604c13.733,6.744 22.435,20.712 22.435,36.011l0,124.002" style="fill:none;stroke:#623296;stroke-width:7.83px;"/><rect x="184.187" y="172.076" width="16.292" height="16.291" style="fill:#69caff;stroke:#623296;stroke-width:5.5px;"/><rect x="184.187" y="127.071" width="16.292" height="16.292" style="fill:#69caff;stroke:#623296;stroke-width:5.5px;"/><rect x="184.187" y="82.066" width="16.292" height="16.292" style="fill:#69caff;stroke:#623296;stroke-width:5.5px;"/><rect x="299.52" y="400.735" width="16.292" height="16.291" style="fill:#69caff;stroke:#623296;stroke-width:5.5px;"/><rect x="299.52" y="355.73" width="16.292" height="16.292" style="fill:#69caff;stroke:#623296;stroke-width:5.5px;"/><rect x="299.52" y="310.725" width="16.292" height="16.292" style="fill:#69caff;stroke:#623296;stroke-width:5.5px;"/><path d="M307.667,71.022l0,127.328c0,15.3 -8.702,29.267 -22.435,36.011l-70.464,34.604c-13.733,6.744 -22.435,20.712 -22.435,36.011l0,124.002" style="fill:none;stroke:#623296;stroke-width:7.83px;"/><rect x="184.187" y="400.735" width="16.292" height="16.291" style="fill:#69caff;stroke:#623296;stroke-width:5.5px;"/><rect x="184.187" y="355.73" width="16.292" height="16.292" style="fill:#69caff;stroke:#623296;stroke-width:5.5px;"/><rect x="184.187" y="310.725" width="16.292" height="16.292" style="fill:#69caff;stroke:#623296;stroke-width:5.5px;"/><rect x="299.52" y="172.076" width="16.292" height="16.291" style="fill:#69caff;stroke:#623296;stroke-width:5.5px;"/><rect x="299.52" y="127.071" width="16.292" height="16.291" style="fill:#69caff;stroke:#623296;stroke-width:5.5px;"/><rect x="299.52" y="82.066" width="16.292" height="16.292" style="fill:#69caff;stroke:#623296;stroke-width:5.5px;"/><path d="M215.577,90.54l66,0" style="fill:none;stroke:#623296;stroke-width:5.5px;"/><path d="M215.577,135.217l66,0" style="fill:none;stroke:#623296;stroke-width:5.5px;"/><path d="M215.577,180.221l66,0" style="fill:none;stroke:#623296;stroke-width:5.5px;"/><path d="M215.577,319.036l66,0" style="fill:none;stroke:#623296;stroke-width:5.5px;"/><path d="M215.577,363.713l66,0" style="fill:none;stroke:#623296;stroke-width:5.5px;"/><path d="M215.577,408.717l66,0" style="fill:none;stroke:#623296;stroke-width:5.5px;"/></g></svg>