<?xml version="1.0" encoding="UTF-8" standalone="no"?><!DOCTYPE svg PUBLIC "-//W3C//DTD SVG 1.1//EN" "http://www.w3.org/Graphics/SVG/1.1/DTD/svg11.dtd"><svg width="100%" height="100%" viewBox="0 0 800 600" version="1.1" xmlns="http://www.w3.org/2000/svg" xmlns:xlink="http://www.w3.org/1999/xlink" xml:space="preserve" xmlns:serif="http://www.serif.com/" style="fill-rule:evenodd;clip-rule:evenodd;stroke-linejoin:round;stroke-miterlimit:1.41421;"><path d="M456.92,330.443c-0.25,0.004 -0.421,-0.325 -0.279,-0.529c0.242,-0.337 0.754,-0.483 1.092,-0.687c3.6,-2.196 7.154,-4.438 10.616,-6.842c3.83,-2.667 7.48,-5.563 11.2,-8.383c1.584,-1.196 3.192,-2.346 4.771,-3.559c0.184,-0.141 1.388,-0.758 1.063,0.004c-0.196,0.446 -0.663,0.73 -1.004,1.055c0.02,-0.017 0.029,-0.021 0,0.004c-5.984,5.679 -12.513,10.771 -19.634,14.966c-1.783,1.055 -3.612,2.046 -5.479,2.938c-0.45,0.204 -0.9,0.417 -1.354,0.617c-0.271,0.12 -0.675,0.408 -0.992,0.416Zm-1.821,-4.121c-0.154,-0.158 -0.145,-0.42 0.05,-0.533c0.388,-0.396 1.063,-0.633 1.538,-0.925c0.958,-0.587 1.921,-1.179 2.871,-1.762c1.8,-1.117 3.583,-2.271 5.333,-3.459c3.496,-2.366 6.846,-4.904 10.163,-7.512c0.791,-0.625 1.583,-1.238 2.387,-1.838c0.813,-0.621 1.658,-1.391 2.563,-1.866c0.625,-0.321 0.841,0.179 0.383,0.637c-0.642,0.65 -1.388,1.229 -2.071,1.838c-2.992,2.704 -6.121,5.233 -9.387,7.591c-2.325,1.684 -4.725,3.263 -7.213,4.692c-1.283,0.737 -2.587,1.433 -3.912,2.096c-0.638,0.312 -1.28,0.608 -1.917,0.904c-0.221,0.104 -0.563,0.354 -0.788,0.137Zm-0.525,-5.212c0.9,-0.521 1.813,-1.029 2.696,-1.579c1.45,-0.904 2.884,-1.825 4.313,-2.767c3.541,-2.317 6.996,-4.775 10.346,-7.362c0.72,-0.559 1.416,-1.192 2.175,-1.696c0.158,-0.104 0.466,-0.267 0.604,-0.038c0.166,0.313 -0.15,0.592 -0.354,0.775c-1.409,1.217 -2.859,2.409 -4.313,3.575c-2.958,2.359 -6.046,4.584 -9.287,6.546c-1.071,0.642 -2.163,1.258 -3.267,1.85c-0.538,0.296 -1.083,0.579 -1.629,0.846c-0.459,0.233 -1.209,0.808 -1.725,0.808c-0.917,0 0.258,-0.854 0.441,-0.958Zm-15.383,-20.533c-13.587,7.141 -29.317,9.641 -44.525,8.237c-4.225,-0.404 -8.412,-1.087 -12.533,-2.083c-1.867,-0.463 -3.704,-1.021 -5.404,-1.946c-1.442,-0.779 -2.771,-1.738 -4.034,-2.779c-2.537,-2.084 -4.812,-4.475 -7.4,-6.504c-2.991,-2.363 -6.483,-3.817 -9.983,-5.25c-7.588,-3.105 -15.629,-5.396 -22.692,-9.663c-3.321,-2.004 -6.296,-4.471 -8.891,-7.354c-2.671,-2.975 -4.767,-6.263 -6.688,-9.767c-1.996,-3.654 -3.7,-7.35 -5.017,-11.308c-1.329,-3.988 -2.37,-8.063 -3.241,-12.171c-1.759,-8.308 -2.788,-16.85 -2.321,-25.346c0.217,-4.05 0.796,-8.096 1.833,-12.021c0.513,-1.929 1.167,-3.8 1.871,-5.662c0.696,-1.854 1.471,-3.592 2.688,-5.163c2.216,-2.866 5.291,-4.825 7.837,-7.35c2.7,-2.687 4.229,-6.12 4.654,-9.891c0.454,-4.079 -0.012,-8.2 1.5,-12.117c0.675,-1.754 1.8,-3.275 2.992,-4.721c1.342,-1.625 2.721,-3.212 4.179,-4.733c2.846,-2.958 5.829,-5.892 9.054,-8.433c2.329,-1.838 4.929,-3.334 7.463,-4.863c4.696,-2.833 9.554,-5.35 14.662,-7.35c3.338,-1.304 6.742,-2.429 10.179,-3.429c3.33,-0.958 6.655,-1.775 10.096,-2.217c7.221,-0.929 14.596,-0.746 21.817,0.075c7.733,0.875 15.325,2.621 22.654,5.234c3.992,1.425 14.417,5.675 20.008,11.216c4.584,4.546 6.563,11.125 8.642,17.146c2.096,6.067 4.283,12.263 8.463,17.25c2.479,2.967 5.67,5.192 8.729,7.513c3.087,2.337 6.071,4.97 8.2,8.241c1.808,2.784 2.925,5.929 3.896,9.088c1.079,3.512 1.92,7.104 2.379,10.75c0.9,7.154 0.125,14.437 -2.204,21.258c-0.671,1.946 -1.492,3.842 -2.396,5.692c-0.779,1.575 -1.538,3.15 -2.859,4.366c-2.379,2.163 -5.62,3.213 -8.625,4.192c-3.254,1.05 -7.562,2.033 -9.012,5.529c-0.746,1.8 -0.808,3.65 -0.329,5.525c0.5,1.959 1.187,3.875 1.662,5.85c0.913,3.817 1.225,7.892 -1.021,11.304c-2.2,3.33 -4.8,6.475 -7.529,9.384c-5.379,5.741 -11.787,10.6 -18.754,14.271Zm-102.267,28.72c0,0.013 -0.008,0.146 -0.008,0.167c0.013,-0.267 -1.525,-0.958 -1.842,-1.125c-0.92,-0.504 -1.841,-1.012 -2.75,-1.537c-1.725,-1.005 -3.429,-2.05 -5.112,-3.117c-3.25,-2.079 -6.446,-4.283 -9.513,-6.621c-2.641,-2.029 -5.133,-4.204 -7.575,-6.454c-2.9,-2.683 -5.72,-5.421 -8.237,-8.479c-4.779,-5.788 -9.029,-12.009 -12.829,-18.488c-3.863,-6.579 -7.309,-13.354 -9.859,-20.554c-2.416,-6.854 -4.262,-13.896 -5.791,-20.996c-0.338,-1.587 -0.663,-3.179 -0.975,-4.775c-0.138,-0.725 -0.275,-1.441 -0.409,-2.158c-0.045,-1.117 -0.062,-2.229 -0.041,-3.346c0.016,-0.967 0.054,-1.912 0.137,-2.871c0.075,-0.9 0.075,-1.933 0.309,-2.804c0.216,-0.8 0.679,1.104 0.725,1.263c0.187,0.654 0.383,1.32 0.57,1.979c0.896,3.141 1.675,6.296 2.3,9.504c0.625,3.242 1.371,6.462 2.213,9.658c2.054,7.775 4.737,15.388 8.075,22.696c3.187,6.983 6.975,13.688 11.379,19.975c2.096,2.983 4.108,6.008 6.392,8.867c2.537,3.179 5.166,6.279 7.975,9.216c3.983,4.184 8.216,8.159 12.825,11.659c2.337,1.771 4.75,3.433 7.212,5.029c0.959,0.637 1.917,1.271 2.909,1.858c0.491,0.284 0.987,0.567 1.479,0.854c0.075,0.038 0.946,0.58 0.441,0.6Zm-60.579,-100.766c0.034,-0.667 0.063,-1.329 0.121,-1.996c0.029,-0.292 0.013,-1.017 0.288,-1.25c0.175,-0.138 0.495,1.4 0.529,1.512c0.258,0.996 0.525,1.988 0.804,2.984c0.971,3.446 1.871,6.891 2.683,10.375c1.609,6.933 3.467,13.854 5.829,20.571c2.367,6.741 5.609,13.216 9.284,19.325c4.171,6.937 8.375,13.804 13.391,20.179c1.784,2.266 3.634,4.487 5.563,6.633c1.008,1.117 2.1,2.142 3.121,3.25c0.496,0.542 0.975,1.071 1.516,1.579c0.134,0.125 1,0.775 0.863,1.029c-0.138,-0.191 -0.233,-0.229 -0.371,-0.058c-0.362,-0.267 -0.725,-0.55 -1.079,-0.821c-0.792,-0.625 -1.533,-1.316 -2.367,-1.879c-1.466,-0.996 -2.754,-2.308 -4.054,-3.496c-3.054,-2.791 -6.046,-5.679 -8.671,-8.871c-4.95,-6.016 -9.246,-12.554 -12.916,-19.425c-6.796,-12.7 -11.496,-26.525 -14.109,-40.679c-0.541,-2.95 -0.566,-5.983 -0.425,-8.962Zm4.309,-1.542c0.025,-0.629 0,-1.317 0.07,-1.942c0.017,-0.125 0.05,-0.366 0.217,-0.366c0.225,0 0.238,0.433 0.275,0.571c0.404,1.67 0.833,3.337 1.271,5.004c1.075,4.079 2.179,8.141 3.233,12.225c1.871,7.283 4.021,14.575 6.792,21.571c1.354,3.425 3.05,6.65 4.846,9.858c2.004,3.571 4.062,7.121 6.183,10.621c2.025,3.346 4.133,6.658 6.379,9.862c1.042,1.479 2.121,2.929 3.209,4.375c1.158,1.529 2.308,3.134 3.629,4.525c0.271,0.288 0.871,0.784 0.904,1.225c0.021,0.338 -0.85,-0.312 -0.917,-0.371c-1.254,-0.987 -2.416,-2.166 -3.591,-3.254c-2.846,-2.625 -5.275,-5.65 -7.663,-8.691c-4.108,-5.246 -7.842,-10.775 -11.042,-16.625c-2.625,-4.8 -5.008,-9.78 -6.825,-14.938c-2.304,-6.558 -4.112,-13.3 -5.712,-20.05c-1.05,-4.471 -1.396,-9.021 -1.258,-13.6Zm4.316,-1.479c0.004,-0.108 0.004,-0.088 0,-0.021c0.013,-0.454 0.025,-0.912 0.059,-1.375c0.016,-0.337 0.279,-0.079 0.35,-0.008c0.3,0.471 0.241,1.237 0.375,1.783c0.4,1.729 0.795,3.45 1.229,5.167c1.029,4.1 2.108,8.183 3.237,12.258c1.067,3.842 2.1,7.675 3.396,11.446c1,2.908 2.117,5.783 3.304,8.617c1.434,3.416 3.088,6.729 4.929,9.95c2.121,3.679 4.321,7.337 6.546,10.958c2.104,3.45 4.209,6.879 6.529,10.179c0.834,1.179 1.838,2.296 2.6,3.517c0.059,0.091 0.33,0.479 0.196,0.6c-0.241,0.229 -1.737,-1.321 -1.958,-1.504c-2.888,-2.559 -5.475,-5.434 -7.892,-8.43c-1.333,-1.645 -2.471,-3.483 -3.625,-5.258c-1.071,-1.642 -2.108,-3.287 -3.116,-4.975c-3.013,-5 -5.9,-10.071 -8,-15.529c-2.33,-6.038 -4.184,-12.271 -5.846,-18.521c-1.617,-6.087 -2.475,-12.537 -2.313,-18.837c-0.004,0.275 -0.029,1.029 0,-0.017Zm4.525,-3.013c-0.046,0.005 -0.125,0.005 0.004,-0.008c0.034,0 0.03,0 0.009,0.008c0.433,0.021 0.508,2.425 0.562,2.709c0.367,2.104 0.813,4.196 1.304,6.275c0.971,4.112 2.088,8.179 3.263,12.233c2.237,7.704 5.121,15.2 8.637,22.417c3.58,7.35 7.7,14.454 12.013,21.391c1.117,1.796 2.258,3.584 3.442,5.338c0.208,0.317 0.662,1.067 -0.046,0.633c-0.525,-0.304 -0.984,-0.758 -1.421,-1.191c-2.233,-2.163 -4.463,-4.425 -6.308,-6.93c-4.434,-6.008 -8.509,-12.35 -11.68,-19.12c-3.458,-7.375 -5.958,-15.192 -7.704,-23.142c-0.8,-3.621 -1.479,-7.267 -1.9,-10.946c-0.2,-1.762 -0.346,-3.533 -0.391,-5.308c-0.009,-0.421 -0.267,-4.3 0.216,-4.359Zm4.421,-2.979c0.296,0.154 0.217,1.159 0.242,1.446c0.183,2.004 0.433,3.992 0.746,5.975c0.608,3.838 1.445,7.633 2.454,11.375c2.058,7.713 4.7,15.204 8.071,22.433c2.416,5.18 5.108,10.225 7.958,15.184c1.487,2.579 2.975,5.187 4.521,7.737c0.554,0.917 1.1,1.829 1.637,2.759c0.346,0.6 0.7,1.179 1.096,1.741c0.125,0.184 0.696,0.867 0.517,1.129c-0.192,-0.17 -0.184,-0.245 -0.375,-0.095c-0.334,-0.246 -0.65,-0.555 -0.954,-0.838c-0.738,-0.667 -1.442,-1.358 -2.155,-2.058c-1.379,-1.363 -2.641,-2.834 -3.883,-4.329c-2.283,-2.734 -4.2,-5.821 -6.025,-8.875c-4.054,-6.788 -6.967,-14.159 -9.287,-21.7c-1.509,-4.905 -2.767,-9.892 -3.642,-14.946c-0.779,-4.513 -1.325,-9.096 -1.25,-13.667c0.004,-0.137 0.004,-0.121 0,-0.012c0.012,-0.967 -0.017,-1.98 0.083,-2.946c0.013,-0.134 0.046,-0.417 0.246,-0.313Zm4.3,-3.912c0.05,-0.463 0.129,-0.934 0.167,-1.396c0.025,-0.283 -0.013,-0.663 0.141,-0.917c0.259,-0.4 0.342,1.142 0.342,1.271c-0.037,1.854 -0.008,3.713 0.075,5.558c0.196,4.196 0.675,8.363 1.446,12.48c1.542,8.237 4.225,16.158 7.671,23.775c2.579,5.7 5.491,11.225 8.612,16.633c1.354,2.346 2.721,4.675 4.067,7.021c0.6,1.054 1.162,2.137 1.821,3.146c0.212,0.329 1.271,1.633 1.025,2.116c-0.004,-0.012 -0.479,-0.387 -0.379,-0.104c-0.271,-0.1 -0.571,-0.479 -0.788,-0.671c-0.754,-0.662 -1.475,-1.358 -2.192,-2.054c-1.433,-1.408 -2.77,-2.904 -4,-4.492c-2.516,-3.262 -4.712,-6.9 -6.675,-10.525c-3.641,-6.733 -6.308,-14.175 -8.204,-21.587c-2.491,-9.754 -4.221,-20.167 -3.129,-30.254Zm4.646,-4.525c0.292,-1.954 0.704,-3.884 1.187,-5.792c0.067,-0.271 0.08,-0.567 0.196,-0.829c0.117,-0.246 0.329,-0.238 0.342,0.042c0.033,0.841 -0.138,1.72 -0.204,2.541c-0.3,4.017 -0.479,8.038 -0.479,12.05c0,3.371 0.141,6.734 0.487,10.088c0.396,3.879 1.229,7.691 2.296,11.437c2.179,7.654 5.15,15.184 8.879,22.213c1.638,3.087 3.446,6.083 5.371,9.004c1.842,2.787 3.179,5.904 4.987,8.708c0.163,0.246 0.538,0.721 0.375,1.021c-0.312,0.171 -1.22,-0.742 -1.391,-0.883c-1.309,-1.134 -2.525,-2.404 -3.696,-3.675c-2.733,-2.954 -4.875,-6.384 -6.925,-9.829c-3.517,-5.938 -5.921,-12.425 -7.788,-19.046c-3.354,-11.9 -5.454,-24.713 -3.637,-37.05Zm2.737,-77.567c-0.054,0.067 -0.1,0.108 0,-0.008c4.421,-5.367 9.105,-10.509 14.621,-14.788c2.692,-2.091 5.525,-4.075 8.459,-5.808c2.916,-1.725 6.012,-3.138 9.137,-4.45c-0.183,0.075 -0.362,0.15 -0.546,0.233c0.196,-0.091 0.388,-0.166 0.584,-0.246c-0.009,0 0.254,-0.045 0.37,0.096c0.238,0.284 -0.087,0.546 -0.312,0.692c-0.783,0.521 -1.567,1.037 -2.346,1.571c-1.65,1.133 -3.262,2.308 -4.892,3.475c-3.304,2.358 -6.579,4.733 -9.77,7.25c-3.113,2.441 -6.188,4.941 -9.184,7.541c-1.521,1.313 -3.016,2.655 -4.496,4.021c-0.362,0.35 -0.729,0.696 -1.095,1.038c-0.221,0.208 -0.65,0.821 -0.988,0.787c-0.854,-0.079 0.283,-1.2 0.458,-1.404Zm36.163,-22.2c0.025,-0.008 0.046,-0.021 0.067,-0.033c0,0 -0.025,0.012 -0.071,0.033c-0.267,0.092 -0.546,0.179 -0.804,0.3c0.279,-0.133 0.591,-0.225 0.875,-0.333c0.029,-0.013 0.312,-0.025 0.412,0.175c0.175,0.346 -0.287,0.521 -0.512,0.666c-0.888,0.563 -1.75,1.155 -2.617,1.73c-1.713,1.154 -3.404,2.32 -5.096,3.491c-3.479,2.421 -6.854,5.013 -10.225,7.588c-3.375,2.579 -6.696,5.229 -9.887,8.025c-1.596,1.404 -3.159,2.837 -4.696,4.296c-0.125,0.125 -1.559,1.695 -1.575,0.758c-0.004,-0.279 0.275,-0.542 0.441,-0.729c0.35,-0.413 0.663,-0.859 0.996,-1.279c8.609,-10.863 19.696,-19.763 32.721,-24.7c-0.004,0.004 -0.017,0.004 -0.029,0.012Zm4.9,2.7c0.396,0.283 -0.842,0.958 -0.979,1.046c-1.775,1.075 -3.525,2.2 -5.263,3.337c-3.516,2.309 -6.971,4.738 -10.371,7.213c-3.416,2.496 -6.75,5.104 -10.004,7.808c-1.646,1.359 -3.254,2.771 -4.829,4.217c-0.762,0.696 -1.525,1.408 -2.279,2.117c-0.375,0.358 -0.75,0.716 -1.125,1.083c-0.3,0.292 -0.608,0.729 -0.979,0.942c-0.313,0.179 -0.609,-0.155 -0.434,-0.455c0.2,-0.362 0.505,-0.687 0.746,-1.025c0.563,-0.783 1.179,-1.529 1.779,-2.279c1.242,-1.533 2.563,-3 3.917,-4.433c2.725,-2.867 5.6,-5.588 8.692,-8.067c5.883,-4.704 12.512,-8.437 19.554,-11.121c-0.025,0.013 -0.05,0.03 -0.079,0.038c0.425,-0.163 1.191,-0.758 1.654,-0.421Zm3.362,2.863c0.313,-0.105 0.842,-0.421 1.175,-0.305c0.275,0.092 0.359,0.409 0.084,0.571c-0.025,-0.046 -1.946,1.092 -2.138,1.204c-1.829,1.067 -3.637,2.171 -5.433,3.292c-3.6,2.271 -7.117,4.675 -10.567,7.171c-6.833,4.929 -13.483,10.196 -19.354,16.262c-0.187,0.192 -0.458,0.655 -0.787,0.467c-0.417,-0.25 0.029,-0.658 0.204,-0.875c0.646,-0.817 1.25,-1.658 1.891,-2.471c1.23,-1.558 2.517,-3.075 3.85,-4.541c2.671,-2.942 5.542,-5.688 8.609,-8.209c6.316,-5.212 13.633,-9.366 21.325,-12.162c0.366,-0.129 0.733,-0.259 1.104,-0.384c-0.171,0.05 -0.467,0.159 0.037,-0.02Zm4.925,2.554c0.155,-0.046 0.092,-0.029 0.017,-0.004c0.204,-0.063 1.838,-0.546 1.467,0.145c-0.163,0.296 -0.529,0.417 -0.813,0.563c-0.525,0.267 -1.041,0.546 -1.562,0.821c-1.909,1.004 -3.8,2.046 -5.663,3.133c-3.654,2.125 -7.204,4.446 -10.696,6.829c-6.983,4.767 -13.745,10.088 -19.67,16.138c-0.638,0.646 -1.234,1.329 -1.871,1.979c-0.188,0.192 -0.546,0.521 -0.8,0.212c-0.259,-0.32 0.3,-0.82 0.483,-1.066c1.225,-1.675 2.546,-3.296 3.892,-4.867c2.633,-3.075 5.429,-6.033 8.446,-8.729c5.604,-5.021 12.045,-9.058 18.908,-12.138c2.525,-1.133 5.175,-2.345 7.862,-3.016Zm3.471,3.141c0.009,-0.004 0.029,-0.004 0.042,-0.004c-0.013,0 -0.033,0 -0.042,0.004Zm1.479,-0.208c0.263,-0.033 0.596,-0.154 0.834,0.038c0.233,0.187 -0.067,0.475 -0.225,0.583c-0.817,0.571 -1.859,0.925 -2.75,1.358c-1.925,0.929 -3.829,1.904 -5.696,2.929c-3.679,2.021 -7.296,4.159 -10.796,6.471c-6.858,4.538 -13.262,9.742 -19.162,15.484c-1.217,1.183 -2.338,2.454 -3.538,3.641c-0.233,0.225 -1.037,0.613 -0.825,-0.104c0.092,-0.296 0.342,-0.546 0.538,-0.779c0.325,-0.404 0.629,-0.825 0.929,-1.233c2.421,-3.309 5.196,-6.405 8.062,-9.321c5.813,-5.896 12.638,-10.884 20.054,-14.571c3.934,-1.954 8.188,-3.892 12.575,-4.496Zm5.396,2.846c0.267,-0.05 0.613,-0.158 0.875,-0.038c0.671,0.305 -0.371,0.759 -0.575,0.846c-1.921,0.842 -3.816,1.725 -5.725,2.588c-3.825,1.725 -7.533,3.625 -11.154,5.737c-7.237,4.238 -14.008,9.129 -20.221,14.784c-1.558,1.42 -3.029,2.933 -4.5,4.445c-0.591,0.613 -1.208,1.2 -1.766,1.842c-0.305,0.35 -0.709,0.9 -1.188,1c-0.737,0.163 -0.075,-0.925 0.067,-1.104c0.616,-0.783 1.166,-1.625 1.783,-2.417c1.279,-1.629 2.625,-3.212 4.008,-4.766c5.325,-5.971 11.425,-11.221 18.296,-15.346c2.646,-1.592 5.413,-3.088 8.25,-4.313c2.871,-1.241 5.775,-2.325 8.871,-2.837c0.988,-0.167 1.996,-0.238 2.979,-0.421Zm28.525,-3.142c8.5,-0.746 17.046,0.079 25.35,1.967c8.15,1.862 16.079,4.621 23.604,8.292c1.817,0.883 3.717,1.758 5.392,2.908c1.679,1.154 3.217,2.542 4.646,3.971c0.242,0.254 2.558,2.383 1.362,2.408c-0.508,0.008 -6.775,-2.633 -9.137,-3.871c-19.925,-10.425 -46.404,-17.362 -73.05,-8.958c-18.063,5.692 -30.504,15.117 -33.642,17.696c-3.221,2.641 -6.429,5.291 -9.371,8.237c-1.412,1.421 -2.67,3.013 -4.258,4.246c-0.308,0.242 -1.012,0.579 -0.837,-0.154c0.17,-0.733 0.887,-1.404 1.325,-1.992c2.466,-3.366 5.325,-6.466 8.275,-9.4c2.825,-2.816 5.841,-5.416 9.07,-7.758c4.009,-2.913 8.3,-5.467 12.763,-7.608c4.354,-2.096 8.987,-3.384 13.662,-4.363c0.009,-0.008 0.021,-0.008 0.05,-0.012c8.334,-1.617 16.288,-4.859 24.796,-5.609Zm-5.983,-2.55c1.992,-0.508 3.958,-1.033 6.008,-1.246c2.121,-0.216 4.259,-0.258 6.388,-0.275c4.275,-0.029 8.55,0.213 12.796,0.746c8.275,1.05 16.512,3.138 24.212,6.342c3.808,1.592 7.538,3.433 11.108,5.508c1.696,0.984 3.355,2.054 4.909,3.267c0.746,0.592 1.462,1.217 2.162,1.854c0.263,0.242 2.079,1.604 1.454,1.967c-0.483,0.279 -1.479,-0.371 -1.941,-0.525c-1.017,-0.329 -2.009,-0.713 -3.017,-1.059c-0.796,-0.27 -1.637,-0.504 -2.375,-0.929c-0.933,-0.541 -1.883,-1.066 -2.837,-1.583c-3.663,-1.958 -7.442,-3.7 -11.309,-5.225c-7.708,-3.046 -15.75,-5.192 -23.933,-6.458c-4.225,-0.663 -8.488,-0.971 -12.754,-1.292c-2.071,-0.154 -4.142,-0.321 -6.217,-0.408c-1.008,-0.042 -2.021,-0.067 -3.029,-0.055c-0.479,0 -0.95,0.009 -1.421,0.03c-0.404,0.012 -0.687,-0.542 -0.204,-0.659Zm7.125,-5.087c4.304,-0.459 8.667,-0.359 12.979,-0.104c4.225,0.262 8.433,0.783 12.588,1.579c8.108,1.55 15.995,4.141 23.408,7.758c3.721,1.808 7.429,3.783 10.817,6.15c0.8,0.563 1.591,1.146 2.354,1.754c0.375,0.292 0.741,0.596 1.1,0.896c0.283,0.246 0.771,0.546 0.912,0.913c0.179,0.445 -0.454,0.383 -0.675,0.291c-0.446,-0.2 -0.908,-0.354 -1.366,-0.521c-1.046,-0.4 -2.092,-0.795 -3.138,-1.191c-7.9,-3.046 -15.325,-7.129 -23.3,-9.979c-6.025,-2.146 -12.229,-3.759 -18.55,-4.78c-3.275,-0.533 -6.554,-0.862 -9.854,-1.179c-1.638,-0.154 -3.267,-0.354 -4.892,-0.591c-0.687,-0.096 -1.375,-0.213 -2.066,-0.267c-0.209,-0.025 -0.521,-0.067 -0.588,-0.3c-0.062,-0.192 0.058,-0.408 0.271,-0.429Zm5.858,-4.104c16.121,-0.255 32.163,3.204 46.575,10.479c3.725,1.879 7.367,3.937 10.767,6.354c0.779,0.554 1.55,1.125 2.304,1.712c0.2,0.159 0.633,0.392 0.442,0.717c-0.259,0.408 -1.079,-0.137 -1.384,-0.262c-1.995,-0.8 -4,-1.584 -5.975,-2.421c-7.725,-3.288 -15.187,-7.159 -23.15,-9.888c-5.045,-1.733 -10.216,-3.129 -15.458,-4.133c-2.7,-0.508 -5.421,-0.933 -8.154,-1.263c-1.338,-0.158 -2.679,-0.254 -4.021,-0.391c-0.596,-0.063 -1.192,-0.159 -1.787,-0.209c-0.438,-0.05 -0.713,-0.691 -0.159,-0.695Zm9.454,-3.696c16.425,0.783 32.592,6.158 46.571,14.733c1.404,0.867 2.775,1.783 4.154,2.679c0.425,0.279 0.867,0.563 1.213,0.925c0.262,0.284 0.392,0.775 -0.188,0.675c-0.566,-0.096 -1.07,-0.483 -1.591,-0.721c-1.029,-0.454 -2.067,-0.887 -3.109,-1.329c-1.975,-0.854 -3.945,-1.716 -5.912,-2.596c-3.913,-1.754 -7.788,-3.6 -11.721,-5.308c-3.917,-1.7 -7.937,-3.158 -12.025,-4.421c-3.212,-0.991 -6.462,-1.854 -9.746,-2.566c-1.646,-0.367 -3.304,-0.684 -4.962,-0.98c-0.804,-0.145 -1.604,-0.266 -2.413,-0.383c-0.225,-0.029 -0.566,-0.017 -0.608,-0.321c-0.029,-0.2 0.121,-0.4 0.337,-0.387Zm9.617,-2.979c0.008,0.004 -0.242,-0.025 0,0c0.092,0.016 0.096,0.016 0.004,0c0.509,0.079 1.021,0.162 1.529,0.225c-0.483,-0.063 -0.975,-0.142 -1.462,-0.213c8.212,1.196 16.279,3.35 23.967,6.471c3.883,1.579 7.65,3.417 11.3,5.462c1.858,1.038 3.67,2.138 5.458,3.28c0.829,0.525 1.642,1.066 2.458,1.62c0.25,0.171 0.529,0.321 0.671,0.605c0.163,0.329 -0.125,0.479 -0.421,0.375c-0.896,-0.284 -1.775,-0.838 -2.616,-1.242c-0.95,-0.438 -1.892,-0.888 -2.842,-1.333c-1.896,-0.884 -3.792,-1.759 -5.688,-2.638c-3.858,-1.767 -7.72,-3.554 -11.637,-5.192c-3.788,-1.583 -7.65,-3 -11.571,-4.225c-1.95,-0.612 -3.921,-1.183 -5.896,-1.704c-0.829,-0.216 -1.666,-0.479 -2.521,-0.608c-0.287,-0.046 -0.595,-0.088 -0.862,-0.225c-0.321,-0.163 -0.321,-0.713 0.129,-0.658Zm7.938,-2.35c0.166,-0.655 2.22,0.166 2.629,0.258c2.058,0.483 4.1,1.021 6.129,1.637c4.029,1.205 7.987,2.638 11.842,4.338c3.845,1.683 7.579,3.625 11.191,5.767c1.696,1.012 3.375,2.062 5.042,3.116c0.229,0.142 0.667,0.425 0.471,0.754c-0.238,0.405 -0.846,-0.083 -1.109,-0.216c-0.962,-0.488 -1.925,-0.963 -2.891,-1.434c-5.967,-2.908 -11.988,-5.795 -18.088,-8.404c-3.033,-1.291 -6.096,-2.471 -9.204,-3.546c-1.342,-0.47 -2.7,-1 -4.075,-1.329c-0.35,-0.087 -2.092,-0.354 -1.937,-0.941c-0.021,0.07 -0.034,0.133 -0.046,0.154c0.012,-0.009 0.016,-0.054 0.046,-0.154c0.066,-0.288 0.037,-0.142 0,0Zm8.379,-2.134c0.012,-0.046 0.004,-0.025 0,-0.004c0.075,-0.217 0.546,-0.204 0.871,-0.133c0.545,0.116 1.062,0.325 1.583,0.512c1.871,0.659 3.779,1.196 5.646,1.871c3.946,1.438 7.808,3.117 11.55,5.029c3.283,1.671 6.458,3.542 9.6,5.471c0.333,0.208 0.916,0.504 1.037,0.917c0.163,0.575 -0.816,0.183 -0.991,0.1c-1.463,-0.729 -2.867,-1.592 -4.33,-2.338c-4.787,-2.429 -9.645,-4.712 -14.529,-6.925c-2.416,-1.091 -4.871,-2.075 -7.337,-3.021c-0.663,-0.25 -1.338,-0.437 -1.996,-0.679c-0.363,-0.133 -1.213,-0.458 -1.104,-0.8c-0.009,0.021 -0.017,0.042 0,0Zm31.625,228.779c5.516,-3.479 10.904,-7.208 15.962,-11.341c10.809,-8.804 19.975,-19.517 26.121,-32.092c5.829,-11.925 9.313,-24.858 13.263,-37.479c1.387,-4.421 3.262,-8.617 5.129,-12.846c1.896,-4.283 3.521,-8.642 4.491,-13.233c0.638,-3.025 1.021,-6.1 1.255,-9.171c0.27,-3.708 0.483,-7.521 0.087,-11.225c-0.737,-6.904 -3.612,-13.392 -7.071,-19.342c-3.291,-5.633 -7.254,-10.808 -10.866,-16.229c-1.605,-2.4 -2.892,-4.996 -4.255,-7.529c-1.933,-3.604 -3.925,-7.171 -6.112,-10.625c-6.463,-10.192 -14.513,-19.271 -23.654,-27.138c-5.288,-4.545 -10.9,-8.941 -16.909,-12.491c-4.779,-2.821 -9.816,-5.196 -14.912,-7.371c-12.217,-5.204 -25.113,-9.492 -38.267,-11.504c-3.216,-0.488 -6.471,-0.625 -9.679,-1.129c-2.95,-0.471 -5.833,-1.25 -8.596,-2.371c-4.258,-1.721 -8.104,-4.363 -12.462,-5.846c-5.063,-1.721 -11.104,-1.792 -16.1,0.196c-5.263,2.083 -9.113,6.408 -12.734,10.587c-1.945,2.254 -3.875,4.521 -5.987,6.621c-1.971,1.946 -4.117,3.592 -6.346,5.229c-3.908,2.859 -7.746,5.817 -11.633,8.709c-6.563,4.87 -13.092,9.791 -19.3,15.12c-2.992,2.567 -5.779,5.375 -8.609,8.105c-3.229,3.108 -6.341,6.35 -9.595,9.429c-4.213,3.979 -8.875,7.425 -13.267,11.196c-4.246,3.65 -8.046,7.75 -10.754,12.683c-3.134,5.717 -5.004,12.117 -5.259,18.633c-0.275,7.05 0.759,14.129 2.092,21.034c0.692,3.591 1.492,7.166 2.346,10.729c0.408,1.708 0.825,3.421 1.25,5.125c0.354,1.412 0.579,3.041 1.208,4.321c0.396,0.804 0.567,1.8 0.809,2.658c0.283,1.033 0.55,2.071 0.829,3.112c0.458,1.709 0.837,3.425 1.179,5.167c0.637,3.304 1.35,6.583 2.137,9.85c1.717,7.129 3.788,14.213 6.571,20.992c2.9,7.091 6.742,13.841 10.834,20.308c3.895,6.154 8.237,12.033 13.079,17.475c5.291,5.938 10.996,11.367 17.296,16.229c5.12,3.971 10.562,7.65 16.395,10.484c5.284,2.57 10.78,4.708 16.305,6.675c5.47,1.945 11.012,3.712 16.629,5.204c4.146,1.091 8.275,1.837 12.533,2.354c-0.033,-0.008 -0.075,-0.008 -0.112,-0.017c1.258,0.167 2.512,0.329 3.766,0.488c1.004,0.133 1.996,0.287 3,0.308c0.954,0.013 1.913,0.071 2.867,0.163c1.675,0.179 3.329,0.458 4.967,0.85c5.766,1.37 11.179,4.129 17.12,4.737c7.071,0.742 13.78,-1.762 19.705,-5.442c2.829,-1.758 5.495,-3.766 8.066,-5.866c1.104,-0.9 2.163,-1.863 3.317,-2.692c1.162,-0.833 2.408,-1.533 3.679,-2.171c3.013,-1.512 6.129,-2.762 9.125,-4.296c3.117,-1.595 6.104,-3.466 9.067,-5.325Z" style="fill:#2d004f;fill-rule:nonzero;"/><g><path d="M81.726,433.489c-1.908,0 -3.675,-0.2 -5.312,-0.6c-1.63,-0.404 -3.046,-1.079 -4.255,-2.038c-1.2,-0.954 -2.145,-2.191 -2.82,-3.725c-0.675,-1.533 -1.017,-3.425 -1.017,-5.687c0,-2.259 0.342,-4.15 1.017,-5.684c0.675,-1.529 1.62,-2.775 2.82,-3.729c1.209,-0.95 2.625,-1.629 4.255,-2.033c1.637,-0.404 3.404,-0.596 5.312,-0.596l34.638,0c1.858,0 3.6,0.192 5.233,0.596c1.629,0.404 3.046,1.083 4.254,2.033c1.204,0.954 2.158,2.2 2.863,3.729c0.7,1.534 1.054,3.425 1.054,5.684c0,2.262 -0.354,4.154 -1.054,5.687c-0.705,1.534 -1.659,2.771 -2.863,3.725c-1.208,0.959 -2.625,1.634 -4.254,2.038c-1.633,0.4 -3.375,0.6 -5.233,0.6l-12.05,0l-10.542,0l-12.046,0Zm22.588,14.304l15.812,0c3.967,0 7.508,-0.625 10.621,-1.879c3.112,-1.254 5.733,-3.038 7.867,-5.342c2.129,-2.317 3.766,-5.092 4.895,-8.321c1.13,-3.246 1.692,-6.846 1.692,-10.812c0,-3.963 -0.592,-7.563 -1.771,-10.804c-1.175,-3.238 -3.046,-6.009 -5.608,-8.321c-2.558,-2.309 -5.85,-4.092 -9.863,-5.35c-4.016,-1.254 -8.833,-1.875 -14.458,-1.875l-9.262,0l-10.388,0l-9.262,0c-5.625,0 -10.442,0.621 -14.459,1.875c-4.016,1.258 -7.304,3.041 -9.866,5.35c-2.559,2.312 -4.43,5.083 -5.609,8.321c-1.179,3.241 -1.766,6.841 -1.766,10.804c0,3.966 0.562,7.566 1.691,10.812c1.129,3.229 2.759,6.004 4.892,8.321c2.133,2.304 4.758,4.088 7.871,5.342c3.112,1.254 6.65,1.879 10.621,1.879l26.35,0Z" style="fill:#2d004f;fill-rule:nonzero;"/><path d="M216.714,409.243c3.362,0 5.808,0.346 7.341,1.05c1.529,0.704 2.296,1.892 2.296,3.537c0,1.359 -0.767,2.575 -2.296,3.655c-1.533,1.083 -4.029,1.62 -7.491,1.62l-47.363,0l0,-9.862l47.513,0Zm-47.513,24.467l35.517,-0.417l16.966,14.5l21.838,0l-17.763,-15.175c0.992,-0.188 1.959,-0.396 2.892,-0.675c2.583,-0.775 4.817,-1.975 6.7,-3.608c1.883,-1.634 3.35,-3.68 4.404,-6.138c1.054,-2.458 1.584,-5.375 1.584,-8.746c0,-3.354 -0.53,-6.204 -1.584,-8.541c-1.054,-2.334 -2.533,-4.225 -4.441,-5.68c-1.909,-1.454 -4.209,-2.512 -6.892,-3.166c-2.688,-0.65 -5.638,-0.975 -8.846,-0.975l-50.375,0l-6.779,0l-8.733,0l0,52.704l15.512,0l0,-14.083Z" style="fill:#2d004f;fill-rule:nonzero;"/><path d="M256.255,440.868c2.334,2.262 5.167,3.979 8.509,5.158c3.333,1.184 7.087,1.767 11.254,1.767l45.333,0c4.113,0 7.592,-0.375 10.429,-1.125c2.834,-0.754 5.104,-1.854 6.813,-3.313c1.704,-1.462 2.937,-3.25 3.691,-5.387c0.75,-2.129 1.13,-4.604 1.13,-7.413c0,-2.866 -0.38,-5.341 -1.13,-7.425c-0.754,-2.079 -1.987,-3.804 -3.691,-5.154c-1.709,-1.354 -3.979,-2.366 -6.813,-3.054c-2.837,-0.671 -6.316,-1.008 -10.429,-1.008l-41.567,0l0,14.154l44.575,0c0.355,0 0.83,0.012 1.434,0.037c0.604,0.03 1.162,0.125 1.691,0.3c0.53,0.18 0.996,0.442 1.392,0.792c0.408,0.35 0.604,0.858 0.604,1.504c0,0.704 -0.196,1.234 -0.604,1.579c-0.396,0.359 -0.862,0.63 -1.392,0.834c-0.529,0.196 -1.087,0.312 -1.691,0.337c-0.604,0.021 -1.079,0.038 -1.434,0.038l-48.341,0c-1.504,0 -2.938,-0.313 -4.288,-0.946c-1.358,-0.617 -2.562,-1.475 -3.616,-2.558c-1.055,-1.084 -1.884,-2.346 -2.484,-3.805c-0.604,-1.454 -0.908,-3.033 -0.908,-4.741c0,-1.7 0.279,-3.3 0.833,-4.779c0.55,-1.484 1.317,-2.775 2.292,-3.875c0.983,-1.105 2.171,-1.971 3.579,-2.605c1.404,-0.625 2.938,-0.937 4.592,-0.937l61.371,0l0,-14.154l-61.371,0c-4.167,0 -7.921,0.575 -11.254,1.725c-3.342,1.162 -6.175,2.866 -8.509,5.129c-2.337,2.254 -4.146,5.017 -5.425,8.283c-1.279,3.259 -1.921,6.996 -1.921,11.213c0,4.171 0.642,7.887 1.921,11.146c1.279,3.262 3.088,6.02 5.425,8.283Z" style="fill:#2d004f;fill-rule:nonzero;"/><path d="M390.118,406.46l14.246,21.533l-28.521,0l14.275,-21.533Zm-22.359,33.733l44.671,0l5.029,7.6l18.146,0l-34.862,-52.704l-3.088,0l-15.058,0l-2.788,0l-34.937,52.704l17.846,0l5.041,-7.6Z" style="fill:#2d004f;fill-rule:nonzero;"/><path d="M513.03,436.947l-41.866,-41.858l-12.425,0l-9.413,0l-7.379,0l0,52.704l16.792,0l0,-43.292l43.295,43.292l27.788,0l0,-52.704l-16.792,0l0,41.858Z" style="fill:#2d004f;fill-rule:nonzero;"/><rect x="542.055" y="395.089" width="16.8" height="52.704" style="fill:#2d004f;fill-rule:nonzero;"/><path d="M654.509,438.91c1.505,-2.455 2.255,-5.771 2.255,-9.938c0,-3.362 -0.496,-6.133 -1.496,-8.321c-1.009,-2.187 -2.421,-3.916 -4.221,-5.196c-1.804,-1.279 -3.996,-2.162 -6.554,-2.633c-2.55,-0.475 -5.388,-0.721 -8.517,-0.721c-2.8,0 -6.125,0.246 -9.971,0.721c-3.841,0.471 -7.85,1 -12.041,1.579c-4.2,0.571 -8.342,1.104 -12.43,1.588c-4.087,0.471 -7.787,0.712 -11.108,0.712c-2.262,0 -3.942,-0.241 -5.046,-0.712c-1.1,-0.484 -1.654,-1.375 -1.654,-2.679c0,-0.905 0.175,-1.617 0.521,-2.15c0.362,-0.525 1.017,-0.925 1.962,-1.205c0.963,-0.275 2.25,-0.45 3.884,-0.529c1.629,-0.066 3.725,-0.112 6.283,-0.112l55.046,0l0,-14.225l-55.046,0c-4.667,0 -8.717,0.287 -12.15,0.862c-3.446,0.579 -6.287,1.559 -8.525,2.938c-2.229,1.379 -3.883,3.229 -4.962,5.529c-1.08,2.317 -1.621,5.225 -1.621,8.742c0,6.275 1.787,10.82 5.346,13.625c3.57,2.816 9.158,4.22 16.787,4.22c3.717,0 7.75,-0.241 12.088,-0.712c4.345,-0.479 8.625,-1.021 12.837,-1.621c4.225,-0.604 8.192,-1.146 11.9,-1.625c3.713,-0.471 6.808,-0.712 9.267,-0.712c1.762,0 3.133,0.208 4.133,0.604c1.008,0.4 1.513,1.183 1.513,2.333c0,1.754 -1.025,2.896 -3.05,3.425c-2.034,0.529 -4.884,0.792 -8.546,0.792l-59.409,0l0,14.304l55.875,0c4.063,0 7.842,-0.192 11.363,-0.596c3.512,-0.408 6.571,-1.275 9.146,-2.6c2.591,-1.333 4.629,-3.229 6.141,-5.687Z" style="fill:#2d004f;fill-rule:nonzero;"/><path d="M753.568,395.089l-7.904,0l-10.7,0l-21.759,40.729l-21.762,-40.729l-10.696,0l-7.9,0l-7.988,0l0,52.704l15.888,0l0,-38.142l20.712,38.142l23.496,0l20.709,-38.142l0,38.142l15.883,0l0,-52.704l-7.979,0Z" style="fill:#2d004f;fill-rule:nonzero;"/></g></svg>