<svg xmlns="http://www.w3.org/2000/svg" viewBox="0 0 338.8 25.2" style="width: 100%;">
    <path fill="#fff" d="M13.8 18.4a10.7 10.7 0 0 1-2.6-.3 5.3 5.3 0 0 1-2-1A4.6 4.6 0 0 1 8 15.3a6.7 6.7 0 0 1-.5-2.7A6.7 6.7 0 0 1 8 9.9 4.6 4.6 0 0 1 9.2 8a5.3 5.3 0 0 1 2-1 10.6 10.6 0 0 1 2.6-.3h16.6a10.4 10.4 0 0 1 2.5.3 5.3 5.3 0 0 1 2 1 4.8 4.8 0 0 1 1.3 1.8 6.5 6.5 0 0 1 .5 2.7 6.5 6.5 0 0 1-.5 2.7 4.8 4.8 0 0 1-1.4 1.8 5.3 5.3 0 0 1-2 1 10.5 10.5 0 0 1-2.4.3H13.8zm10.8 6.8H32a13.5 13.5 0 0 0 5.1-.9 10.3 10.3 0 0 0 3.8-2.6 11.3 11.3 0 0 0 2.3-4 15.7 15.7 0 0 0 .9-5.1 15 15 0 0 0-.9-5.2 9.8 9.8 0 0 0-2.7-4A12.5 12.5 0 0 0 36 1 23.4 23.4 0 0 0 29 0H15.2a23.4 23.4 0 0 0-7 .9 12.5 12.5 0 0 0-4.7 2.6 9.8 9.8 0 0 0-2.7 4 15 15 0 0 0-.8 5.1 15.7 15.7 0 0 0 .8 5.2 11.3 11.3 0 0 0 2.3 4A10.3 10.3 0 0 0 7 24.3a13.5 13.5 0 0 0 5 .9h12.7zM78.3 6.8a9 9 0 0 1 3.5.5A1.7 1.7 0 0 1 83 9a2.2 2.2 0 0 1-1 1.8 6.4 6.4 0 0 1-3.6.7H55.6V6.8zM55.6 18.5l17-.2 8.1 6.9h10.5l-8.5-7.3a13.6 13.6 0 0 0 1.3-.3 8.6 8.6 0 0 0 3.2-1.7 8 8 0 0 0 2.1-2.9 10.6 10.6 0 0 0 .8-4.2 10 10 0 0 0-.7-4A7 7 0 0 0 87.1 2 8.8 8.8 0 0 0 84 .5a18 18 0 0 0-4.2-.5H48.2v25.2h7.4v-6.7zM97.2 21.9a11 11 0 0 0 4.1 2.5 16 16 0 0 0 5.4.8h21.7a19.8 19.8 0 0 0 5-.5 8.2 8.2 0 0 0 3.2-1.6 6 6 0 0 0 1.8-2.6 10.7 10.7 0 0 0 .5-3.5 10.5 10.5 0 0 0-.5-3.6 5.5 5.5 0 0 0-1.8-2.5 8.4 8.4 0 0 0-3.2-1.4 22 22 0 0 0-5-.5h-20v6.8H130.6a3 3 0 0 1 .8.1 2 2 0 0 1 .7.4.9.9 0 0 1 .3.7 1 1 0 0 1-.3.8 2.1 2.1 0 0 1-.7.4 2.6 2.6 0 0 1-.8.1h-23.8a4.8 4.8 0 0 1-2-.4 5.7 5.7 0 0 1-3-3 5.8 5.8 0 0 1-.4-2.3 6.5 6.5 0 0 1 .4-2.3 5.8 5.8 0 0 1 1.1-1.8 5 5 0 0 1 1.7-1.3 5.3 5.3 0 0 1 2.2-.4H136V0h-29.3a16.4 16.4 0 0 0-5.4.8 10.7 10.7 0 0 0-6.7 6.4 14.6 14.6 0 0 0-.9 5.4 14.5 14.5 0 0 0 1 5.3 11 11 0 0 0 2.5 4zM161.2 5.4l6.8 10.3h-13.6l6.8-10.3zm-10.6 16.2h21.3l2.4 3.6h8.7L166.3 0h-10l-16.7 25.2h8.5zM220 20L200 0h-14v25.2h8V4.5l20.7 20.7H228V0h-8v20zM233.9 0h8v25.2h-8zM287.6 21a9 9 0 0 0 1.1-4.8 9.6 9.6 0 0 0-.7-4 6.1 6.1 0 0 0-2-2.4 7.8 7.8 0 0 0-3.1-1.3 22.3 22.3 0 0 0-4-.3 39.8 39.8 0 0 0-4.9.3l-5.7.8q-3 .5-6 .7a46.8 46.8 0 0 1-5.3.4 6.5 6.5 0 0 1-2.4-.4 1.3 1.3 0 0 1-.8-1.3 1.9 1.9 0 0 1 .3-1 1.7 1.7 0 0 1 .9-.6 8.5 8.5 0 0 1 1.9-.2h29.3V0h-26.3a35.6 35.6 0 0 0-5.9.4 11.3 11.3 0 0 0-4 1.4 6.1 6.1 0 0 0-2.4 2.7 9.9 9.9 0 0 0-.7 4.1q0 4.5 2.5 6.6t8 2a53.8 53.8 0 0 0 5.8-.4q3.1-.3 6.1-.8t5.7-.7a36.5 36.5 0 0 1 4.4-.4 5.5 5.5 0 0 1 2 .3 1.1 1.1 0 0 1 .8 1.1c0 .9-.5 1.4-1.5 1.7a17 17 0 0 1-4 .3h-28.5v6.9H275a47.8 47.8 0 0 0 5.5-.3 12.7 12.7 0 0 0 4.3-1.2 7.3 7.3 0 0 0 3-2.7zM335 0h-8.9l-10.4 19.5L305.3 0h-12.7v25.2h7.6V7l9.9 18.2h11.2l10-18.2v18.2h7.5V0H335z">
    </path>
</svg>
