<?xml version="1.0" encoding="UTF-8" standalone="no"?><!DOCTYPE svg PUBLIC "-//W3C//DTD SVG 1.1//EN" "http://www.w3.org/Graphics/SVG/1.1/DTD/svg11.dtd"><svg width="100%" height="100%" viewBox="0 0 500 500" version="1.1" xmlns="http://www.w3.org/2000/svg" xmlns:xlink="http://www.w3.org/1999/xlink" xml:space="preserve" xmlns:serif="http://www.serif.com/" style="fill-rule:evenodd;clip-rule:evenodd;stroke-linecap:round;stroke-linejoin:round;stroke-miterlimit:10;"><rect id="Page-1" serif:id="Page 1" x="0" y="0" width="500" height="500" style="fill:none;"/><clipPath id="_clip1"><rect id="Page-11" serif:id="Page 1" x="0" y="0" width="500" height="500"/></clipPath><g clip-path="url(#_clip1)"><g id="Layer-1" serif:id="Layer 1"><path d="M263.079,424.319c-0.987,0 -1.797,-0.789 -1.815,-1.78l-0.051,-2.516c-0.02,-1.003 0.777,-1.832 1.78,-1.852c1.003,-0.044 1.833,0.777 1.853,1.781l0.05,2.514c0.02,1.003 -0.777,1.833 -1.781,1.853l-0.036,0Z" style="fill:#a1d910;fill-rule:nonzero;"/><path d="M270.205,427.01c-0.453,0 -0.906,-0.166 -1.259,-0.505c-0.723,-0.695 -0.746,-1.846 -0.052,-2.57l1.745,-1.815c0.695,-0.724 1.845,-0.745 2.568,-0.05c0.724,0.695 0.747,1.846 0.052,2.568l-1.743,1.815c-0.358,0.372 -0.833,0.558 -1.311,0.558" style="fill:#a1d910;fill-rule:nonzero;"/><path d="M273.34,433.953c-0.986,0 -1.796,-0.79 -1.815,-1.781c-0.021,-1.003 0.777,-1.833 1.78,-1.853l2.515,-0.049l0.038,0c0.986,0 1.795,0.789 1.815,1.781c0.02,1.003 -0.777,1.833 -1.78,1.852l-2.516,0.05l-0.037,0Z" style="fill:#a1d910;fill-rule:nonzero;"/><path d="M272.464,442.821c-0.453,0 -0.906,-0.167 -1.259,-0.506l-1.814,-1.743c-0.724,-0.695 -0.747,-1.846 -0.052,-2.569c0.696,-0.725 1.846,-0.746 2.569,-0.052l1.815,1.744c0.723,0.694 0.746,1.846 0.051,2.568c-0.357,0.372 -0.833,0.558 -1.31,0.558" style="fill:#a1d910;fill-rule:nonzero;"/><path d="M263.757,446.729c-0.986,0 -1.796,-0.789 -1.815,-1.779l-0.051,-2.516c-0.021,-1.004 0.776,-1.833 1.78,-1.853c1.018,0.016 1.833,0.777 1.853,1.779l0.05,2.516c0.021,1.003 -0.777,1.833 -1.78,1.853l-0.037,0Z" style="fill:#a1d910;fill-rule:nonzero;"/><path d="M254.839,443.337c-0.453,0 -0.906,-0.168 -1.259,-0.507c-0.723,-0.694 -0.747,-1.846 -0.052,-2.568l1.744,-1.815c0.696,-0.725 1.846,-0.746 2.569,-0.051c0.724,0.695 0.746,1.845 0.052,2.568l-1.744,1.814c-0.357,0.372 -0.833,0.559 -1.31,0.559" style="fill:#a1d910;fill-rule:nonzero;"/><path d="M250.931,434.631c-0.987,0 -1.797,-0.789 -1.816,-1.779c-0.021,-1.004 0.776,-1.833 1.78,-1.854l2.515,-0.051c1.012,0.022 1.833,0.779 1.853,1.781c0.021,1.003 -0.776,1.833 -1.779,1.852l-2.517,0.051l-0.036,0Z" style="fill:#a1d910;fill-rule:nonzero;"/><path d="M256.138,427.455c-0.453,0 -0.906,-0.168 -1.258,-0.506l-1.814,-1.744c-0.725,-0.694 -0.747,-1.846 -0.052,-2.568c0.696,-0.725 1.846,-0.747 2.568,-0.052l1.815,1.743c0.723,0.695 0.747,1.846 0.052,2.569c-0.357,0.371 -0.833,0.558 -1.311,0.558" style="fill:#a1d910;fill-rule:nonzero;"/><path d="M410.161,250l0,16.144" style="fill:none;stroke:#fff;stroke-width:7.54px;"/><path d="M368.831,285.624c0,-69.835 -56.697,-126.532 -126.532,-126.532c-69.836,0 -126.533,56.697 -126.533,126.532c0,69.835 56.697,126.533 126.533,126.533c69.835,0 126.532,-56.698 126.532,-126.533Z" style="fill:none;stroke:#623296;stroke-width:5.31px;stroke-miterlimit:4;stroke-dasharray:0,24.09;"/><path d="M366.653,96.623c0,1.677 -1.359,3.036 -3.036,3.036c-1.677,0 -3.036,-1.359 -3.036,-3.036c0,-1.677 1.359,-3.036 3.036,-3.036c1.677,0 3.036,1.359 3.036,3.036" style="fill:#623296;fill-rule:nonzero;"/><path d="M389.504,93.641c0,14.297 -11.59,25.887 -25.887,25.887c-14.297,0 -25.886,-11.59 -25.886,-25.887c0,-14.297 11.589,-25.887 25.886,-25.887c14.297,0 25.887,11.59 25.887,25.887" style="fill:#fff;fill-rule:nonzero;"/><path d="M385.153,97.992c0,14.297 -11.59,25.887 -25.886,25.887c-14.297,0 -25.886,-11.59 -25.886,-25.887c0,-14.297 11.589,-25.887 25.886,-25.887c14.296,0 25.886,11.59 25.886,25.887" style="fill:#ffed3e;fill-rule:nonzero;"/><path d="M366.756,116.389c-14.297,0 -25.887,-11.59 -25.887,-25.887c0,-5.232 1.558,-10.099 4.228,-14.171c-7.053,4.624 -11.715,12.595 -11.715,21.66c0,14.296 11.59,25.886 25.887,25.886c9.063,0 17.034,-4.662 21.659,-11.716c-4.072,2.67 -8.94,4.228 -14.172,4.228" style="fill:#ffd900;fill-rule:nonzero;"/><path d="M389.504,93.641c0,-14.287 -11.599,-25.887 -25.887,-25.887c-14.287,0 -25.886,11.6 -25.886,25.887c0,14.288 11.599,25.887 25.886,25.887c14.288,0 25.887,-11.599 25.887,-25.887Z" style="fill:none;stroke:#623296;stroke-width:6.24px;"/><path d="M363.617,57.755l0,-6.068" style="fill:none;stroke:#623296;stroke-width:6.24px;"/><path d="M338.241,68.265l-4.29,-4.29" style="fill:none;stroke:#623296;stroke-width:6.24px;"/><path d="M327.73,93.641l-6.068,0" style="fill:none;stroke:#623296;stroke-width:6.24px;"/><path d="M338.241,119.017l-4.29,4.291" style="fill:none;stroke:#623296;stroke-width:6.24px;"/><path d="M363.617,129.528l0,6.068" style="fill:none;stroke:#623296;stroke-width:6.24px;"/><path d="M388.993,119.017l4.291,4.291" style="fill:none;stroke:#623296;stroke-width:6.24px;"/><path d="M399.504,93.641l6.068,0" style="fill:none;stroke:#623296;stroke-width:6.24px;"/><path d="M388.993,68.265l4.291,-4.29" style="fill:none;stroke:#623296;stroke-width:6.24px;"/><path d="M253.453,338.791l-34.852,0c-10.948,0 -19.824,-8.876 -19.824,-19.824l0,-77.149c0,-10.948 8.876,-19.824 19.824,-19.824l34.852,0c10.948,0 19.824,8.876 19.824,19.824l0,77.149c0,10.948 -8.876,19.824 -19.824,19.824" style="fill:#a4dc10;fill-rule:nonzero;"/><path d="M259.589,332.655l-34.852,0c-10.949,0 -19.824,-8.876 -19.824,-19.824l0,-77.148c0,-3.902 1.143,-7.531 3.09,-10.598c-5.539,3.515 -9.226,9.687 -9.226,16.733l0,77.149c0,10.948 8.876,19.824 19.825,19.824l34.851,0c7.046,0 13.218,-3.688 16.734,-9.227c-3.068,1.947 -6.696,3.091 -10.598,3.091" style="fill:#6ec11e;fill-rule:nonzero;"/><path d="M271.278,440.655l-60.776,0c-1.098,0 -2.035,-0.793 -2.215,-1.875l-11.069,-66.153c-0.228,-1.369 0.828,-2.618 2.216,-2.618l82.911,0c1.389,0 2.445,1.249 2.215,2.618l-11.067,66.153c-0.181,1.082 -1.117,1.875 -2.215,1.875" style="fill:#fff;fill-rule:nonzero;"/><path d="M215.475,431.592l-9.989,-59.707c-0.182,-1.082 -1.118,-1.875 -2.216,-1.875l-3.835,0c-1.389,0 -2.444,1.246 -2.216,2.616l11.069,66.154c0.18,1.082 1.117,1.875 2.214,1.875l60.777,0c1.097,0 2.034,-0.793 2.215,-1.875l0.451,-2.695c0.229,-1.37 -0.827,-2.618 -2.215,-2.618l-54.04,0c-1.098,0 -2.034,-0.793 -2.215,-1.875" style="fill:#fff;fill-rule:nonzero;"/><path d="M263.62,448.313l-60.776,0c-1.098,0 -2.035,-0.793 -2.215,-1.875l-11.068,-66.153c-0.229,-1.37 0.827,-2.618 2.215,-2.618l82.911,0c1.389,0 2.445,1.248 2.215,2.618l-11.067,66.153c-0.181,1.082 -1.117,1.875 -2.215,1.875" style="fill:#b7edff;fill-rule:nonzero;"/><path d="M207.816,439.251l-9.989,-59.707c-0.181,-1.083 -1.118,-1.876 -2.215,-1.876l-3.836,0c-1.389,0 -2.444,1.247 -2.215,2.617l11.068,66.153c0.18,1.083 1.117,1.876 2.214,1.876l60.777,0c1.097,0 2.034,-0.793 2.215,-1.876l0.451,-2.695c0.229,-1.37 -0.826,-2.617 -2.215,-2.617l-54.04,0c-1.098,0 -2.034,-0.793 -2.215,-1.875" style="fill:#69caff;fill-rule:nonzero;"/><path d="M273.338,441.688l-64.579,0l-11.819,-70.646l88.216,0l-11.818,70.646Z" style="fill:none;stroke:#623296;stroke-width:8.12px;"/><path d="M241.048,369.223l0,-121.167" style="fill:none;stroke:#623296;stroke-width:8.12px;"/><path d="M259.724,332.519l-34.852,0c-10.948,0 -19.824,-8.875 -19.824,-19.824l0,-77.148c0,-10.948 8.876,-19.824 19.824,-19.824l34.852,0c10.949,0 19.824,8.876 19.824,19.824l0,77.148c0,10.949 -8.875,19.824 -19.824,19.824Z" style="fill:none;stroke:#623296;stroke-width:8.12px;"/><path d="M242.298,270.39l12.459,-12.459" style="fill:none;stroke:#623296;stroke-width:8.12px;"/><path d="M242.298,303.723l12.459,-12.458" style="fill:none;stroke:#623296;stroke-width:8.12px;"/><path d="M242.298,303.723l-12.458,-12.458" style="fill:none;stroke:#623296;stroke-width:8.12px;"/><path d="M127.458,269.663c0,9.121 -7.395,16.515 -16.516,16.515c-9.121,0 -16.514,-7.394 -16.514,-16.515c0,-9.121 7.393,-16.516 16.514,-16.516c9.121,0 16.516,7.395 16.516,16.516" style="fill:#ffc600;fill-rule:nonzero;"/><path d="M127.458,269.662c0,-9.115 -7.4,-16.515 -16.515,-16.515c-9.115,0 -16.515,7.4 -16.515,16.515c0,9.115 7.4,16.516 16.515,16.516c9.115,0 16.515,-7.401 16.515,-16.516Z" style="fill:none;stroke:#623296;stroke-width:3.98px;"/><path d="M119.459,271.564c0,1.07 -0.867,1.937 -1.937,1.937c-1.07,0 -1.938,-0.867 -1.938,-1.937c0,-1.069 0.868,-1.937 1.938,-1.937c1.07,0 1.937,0.868 1.937,1.937" style="fill:#623296;fill-rule:nonzero;"/><path d="M134.037,269.663c0,9.121 -7.395,16.515 -16.516,16.515c-9.121,0 -16.514,-7.394 -16.514,-16.515c0,-9.121 7.393,-16.516 16.514,-16.516c9.121,0 16.516,7.395 16.516,16.516" style="fill:#fff;fill-rule:nonzero;"/><path d="M134.037,269.663c0,9.121 -7.395,16.515 -16.516,16.515c-9.121,0 -16.514,-7.394 -16.514,-16.515c0,-9.121 7.393,-16.516 16.514,-16.516c9.121,0 16.516,7.395 16.516,16.516" style="fill:#ffed3e;fill-rule:nonzero;"/><path d="M134.037,269.662c0,-9.115 -7.4,-16.515 -16.515,-16.515c-9.115,0 -16.515,7.4 -16.515,16.515c0,9.115 7.4,16.516 16.515,16.516c9.115,0 16.515,-7.401 16.515,-16.516Z" style="fill:none;stroke:#623296;stroke-width:3.98px;"/><path d="M110.942,253.147l6.579,0" style="fill:none;stroke:#623296;stroke-width:3.98px;"/><path d="M110.942,286.177l6.579,0" style="fill:none;stroke:#623296;stroke-width:3.98px;"/><path d="M250.569,159.092c0,9.121 -7.395,16.516 -16.516,16.516c-9.121,0 -16.514,-7.395 -16.514,-16.516c0,-9.121 7.393,-16.515 16.514,-16.515c9.121,0 16.516,7.394 16.516,16.515" style="fill:#ffc600;fill-rule:nonzero;"/><path d="M250.569,159.092c0,-9.115 -7.4,-16.515 -16.515,-16.515c-9.115,0 -16.515,7.4 -16.515,16.515c0,9.115 7.4,16.516 16.515,16.516c9.115,0 16.515,-7.401 16.515,-16.516Z" style="fill:none;stroke:#623296;stroke-width:3.98px;"/><path d="M242.569,160.994c0,1.07 -0.867,1.937 -1.937,1.937c-1.07,0 -1.937,-0.867 -1.937,-1.937c0,-1.069 0.867,-1.937 1.937,-1.937c1.07,0 1.937,0.868 1.937,1.937" style="fill:#623296;fill-rule:nonzero;"/><path d="M257.148,159.092c0,9.121 -7.394,16.516 -16.515,16.516c-9.121,0 -16.516,-7.395 -16.516,-16.516c0,-9.121 7.394,-16.515 16.516,-16.515c9.12,0 16.514,7.394 16.514,16.515" style="fill:#fff;fill-rule:nonzero;"/><path d="M257.148,159.092c0,9.121 -7.394,16.516 -16.515,16.516c-9.121,0 -16.516,-7.395 -16.516,-16.516c0,-9.121 7.394,-16.515 16.516,-16.515c9.12,0 16.514,7.394 16.514,16.515" style="fill:#ffed3e;fill-rule:nonzero;"/><path d="M257.148,159.092c0,-9.115 -7.401,-16.515 -16.516,-16.515c-9.114,0 -16.514,7.4 -16.514,16.515c0,9.115 7.4,16.516 16.514,16.516c9.115,0 16.516,-7.401 16.516,-16.516Z" style="fill:none;stroke:#623296;stroke-width:3.98px;"/><path d="M234.054,142.577l6.579,0" style="fill:none;stroke:#623296;stroke-width:3.98px;"/><path d="M234.054,175.607l6.579,0" style="fill:none;stroke:#623296;stroke-width:3.98px;"/><path d="M382.057,269.663c0,9.121 -7.395,16.515 -16.516,16.515c-9.121,0 -16.514,-7.394 -16.514,-16.515c0,-9.121 7.393,-16.516 16.514,-16.516c9.121,0 16.516,7.395 16.516,16.516" style="fill:#ffc600;fill-rule:nonzero;"/><path d="M382.057,269.662c0,-9.115 -7.401,-16.515 -16.515,-16.515c-9.115,0 -16.515,7.4 -16.515,16.515c0,9.115 7.4,16.516 16.515,16.516c9.114,0 16.515,-7.401 16.515,-16.516Z" style="fill:none;stroke:#623296;stroke-width:3.98px;"/><path d="M374.058,271.564c0,1.07 -0.867,1.937 -1.937,1.937c-1.07,0 -1.938,-0.867 -1.938,-1.937c0,-1.069 0.868,-1.937 1.938,-1.937c1.07,0 1.937,0.868 1.937,1.937" style="fill:#623296;fill-rule:nonzero;"/><path d="M388.636,269.663c0,9.121 -7.395,16.515 -16.516,16.515c-9.121,0 -16.514,-7.394 -16.514,-16.515c0,-9.121 7.393,-16.516 16.514,-16.516c9.121,0 16.516,7.395 16.516,16.516" style="fill:#fff;fill-rule:nonzero;"/><path d="M388.636,269.663c0,9.121 -7.395,16.515 -16.516,16.515c-9.121,0 -16.514,-7.394 -16.514,-16.515c0,-9.121 7.393,-16.516 16.514,-16.516c9.121,0 16.516,7.395 16.516,16.516" style="fill:#ffed3e;fill-rule:nonzero;"/><path d="M388.636,269.662c0,-9.115 -7.4,-16.515 -16.515,-16.515c-9.115,0 -16.515,7.4 -16.515,16.515c0,9.115 7.4,16.516 16.515,16.516c9.115,0 16.515,-7.401 16.515,-16.516Z" style="fill:none;stroke:#623296;stroke-width:3.98px;"/><path d="M365.541,253.147l6.579,0" style="fill:none;stroke:#623296;stroke-width:3.98px;"/><path d="M365.541,286.177l6.579,0" style="fill:none;stroke:#623296;stroke-width:3.98px;"/><path d="M381.764,269.866c-0.129,-0.086 -0.131,-0.263 -0.009,-0.358c0.39,-0.304 0.794,-0.862 0.794,-1.638c0,-1.513 -1.005,-2.481 -2.729,-2.481l-3.329,0c-0.121,0 -0.219,0.098 -0.219,0.219l0,3.134c0,0.121 -0.098,0.219 -0.22,0.219l-1.462,0c-0.121,0 -0.219,-0.098 -0.219,-0.219l0,-3.134c0,-0.121 -0.099,-0.219 -0.22,-0.219l-1.285,0c-0.121,0 -0.22,0.098 -0.22,0.219l0,3.134c0,0.121 -0.098,0.219 -0.219,0.219l-1.378,0c-0.121,0 -0.22,-0.098 -0.22,-0.219l0,-3.134c0,-0.121 -0.098,-0.219 -0.219,-0.219l-1.286,0c-0.121,0 -0.219,0.098 -0.219,0.219l0,4.446c0,0.219 -0.285,0.303 -0.404,0.119l-3.03,-4.684c-0.041,-0.062 -0.11,-0.1 -0.185,-0.1l-1.199,0c-0.121,0 -0.219,0.098 -0.219,0.22l0,3.133c0,0.121 -0.099,0.22 -0.22,0.22l-1.95,0c-0.121,0 -0.219,0.098 -0.219,0.219l0,1.114c0,0.121 0.098,0.22 0.219,0.22l1.95,0c0.121,0 0.22,0.098 0.22,0.219l0,3.268c0,0.122 0.098,0.22 0.219,0.22l1.286,0c0.121,0 0.219,-0.098 0.219,-0.22l0,-4.456c0,-0.219 0.286,-0.303 0.405,-0.119l3.029,4.695c0.04,0.062 0.11,0.1 0.184,0.1l1.2,0c0.121,0 0.219,-0.098 0.219,-0.22l0,-3.268c0,-0.121 0.099,-0.219 0.22,-0.219l1.378,0c0.121,0 0.219,0.098 0.219,0.219l0,3.268c0,0.122 0.099,0.22 0.22,0.22l1.285,0c0.121,0 0.22,-0.098 0.22,-0.22l0,-3.268c0,-0.121 0.098,-0.219 0.219,-0.219l1.462,0c0.122,0 0.22,0.098 0.22,0.219l0,3.268c0,0.122 0.098,0.22 0.219,0.22l3.478,0c1.575,0 2.704,-0.893 2.704,-2.543c0,-0.96 -0.452,-1.508 -0.909,-1.813Zm-3.768,-2.719c0,-0.121 0.099,-0.22 0.22,-0.22l1.467,0c0.733,0 1.142,0.41 1.142,1.018c0,0.608 -0.409,1.017 -1.142,1.017l-1.438,0c-0.137,0 -0.249,-0.112 -0.249,-0.249l0,-1.566Zm1.799,5.537l-1.579,0c-0.121,0 -0.22,-0.098 -0.22,-0.219l0,-1.75c0,-0.111 0.09,-0.201 0.2,-0.201l1.599,-0.001c0.782,0 1.154,0.484 1.154,1.079c0,0.596 -0.372,1.092 -1.154,1.092Z" style="fill-rule:nonzero;"/><g><path d="M249.764,159.866c-0.129,-0.086 -0.131,-0.263 -0.009,-0.358c0.39,-0.304 0.794,-0.862 0.794,-1.638c0,-1.513 -1.005,-2.481 -2.729,-2.481l-3.329,0c-0.121,0 -0.219,0.098 -0.219,0.219l0,3.134c0,0.121 -0.098,0.219 -0.22,0.219l-1.462,0c-0.121,0 -0.219,-0.098 -0.219,-0.219l0,-3.134c0,-0.121 -0.099,-0.219 -0.22,-0.219l-1.285,0c-0.121,0 -0.22,0.098 -0.22,0.219l0,3.134c0,0.121 -0.098,0.219 -0.219,0.219l-1.378,0c-0.121,0 -0.22,-0.098 -0.22,-0.219l0,-3.134c0,-0.121 -0.098,-0.219 -0.219,-0.219l-1.286,0c-0.121,0 -0.219,0.098 -0.219,0.219l0,4.446c0,0.219 -0.285,0.303 -0.404,0.119l-3.03,-4.684c-0.041,-0.062 -0.11,-0.1 -0.185,-0.1l-1.199,0c-0.121,0 -0.219,0.098 -0.219,0.22l0,3.133c0,0.121 -0.099,0.22 -0.22,0.22l-1.95,0c-0.121,0 -0.219,0.098 -0.219,0.219l0,1.114c0,0.121 0.098,0.22 0.219,0.22l1.95,0c0.121,0 0.22,0.098 0.22,0.219l0,3.268c0,0.122 0.098,0.22 0.219,0.22l1.286,0c0.121,0 0.219,-0.098 0.219,-0.22l0,-4.456c0,-0.219 0.286,-0.303 0.405,-0.119l3.029,4.695c0.04,0.062 0.11,0.1 0.184,0.1l1.2,0c0.121,0 0.219,-0.098 0.219,-0.22l0,-3.268c0,-0.121 0.099,-0.219 0.22,-0.219l1.378,0c0.121,0 0.219,0.098 0.219,0.219l0,3.268c0,0.122 0.099,0.22 0.22,0.22l1.285,0c0.121,0 0.22,-0.098 0.22,-0.22l0,-3.268c0,-0.121 0.098,-0.219 0.219,-0.219l1.462,0c0.122,0 0.22,0.098 0.22,0.219l0,3.268c0,0.122 0.098,0.22 0.219,0.22l3.478,0c1.575,0 2.704,-0.893 2.704,-2.543c0,-0.96 -0.452,-1.508 -0.909,-1.813Zm-3.768,-2.719c0,-0.121 0.099,-0.22 0.22,-0.22l1.467,0c0.733,0 1.142,0.41 1.142,1.018c0,0.608 -0.409,1.017 -1.142,1.017l-1.438,0c-0.137,0 -0.249,-0.112 -0.249,-0.249l0,-1.566Zm1.799,5.537l-1.579,0c-0.121,0 -0.22,-0.098 -0.22,-0.219l0,-1.75c0,-0.111 0.09,-0.201 0.2,-0.201l1.599,-0.001c0.782,0 1.154,0.484 1.154,1.079c0,0.596 -0.372,1.092 -1.154,1.092Z" style="fill-rule:nonzero;"/></g><g><path d="M126.764,269.866c-0.129,-0.086 -0.131,-0.263 -0.009,-0.358c0.39,-0.304 0.794,-0.862 0.794,-1.638c0,-1.513 -1.005,-2.481 -2.729,-2.481l-3.329,0c-0.121,0 -0.219,0.098 -0.219,0.219l0,3.134c0,0.121 -0.098,0.219 -0.22,0.219l-1.462,0c-0.121,0 -0.219,-0.098 -0.219,-0.219l0,-3.134c0,-0.121 -0.099,-0.219 -0.22,-0.219l-1.285,0c-0.121,0 -0.22,0.098 -0.22,0.219l0,3.134c0,0.121 -0.098,0.219 -0.219,0.219l-1.378,0c-0.121,0 -0.22,-0.098 -0.22,-0.219l0,-3.134c0,-0.121 -0.098,-0.219 -0.219,-0.219l-1.286,0c-0.121,0 -0.219,0.098 -0.219,0.219l0,4.446c0,0.219 -0.285,0.303 -0.404,0.119l-3.03,-4.684c-0.041,-0.062 -0.11,-0.1 -0.185,-0.1l-1.199,0c-0.121,0 -0.219,0.098 -0.219,0.22l0,3.133c0,0.121 -0.099,0.22 -0.22,0.22l-1.95,0c-0.121,0 -0.219,0.098 -0.219,0.219l0,1.114c0,0.121 0.098,0.22 0.219,0.22l1.95,0c0.121,0 0.22,0.098 0.22,0.219l0,3.268c0,0.122 0.098,0.22 0.219,0.22l1.286,0c0.121,0 0.219,-0.098 0.219,-0.22l0,-4.456c0,-0.219 0.286,-0.303 0.405,-0.119l3.029,4.695c0.04,0.062 0.11,0.1 0.184,0.1l1.2,0c0.121,0 0.219,-0.098 0.219,-0.22l0,-3.268c0,-0.121 0.099,-0.219 0.22,-0.219l1.378,0c0.121,0 0.219,0.098 0.219,0.219l0,3.268c0,0.122 0.099,0.22 0.22,0.22l1.285,0c0.121,0 0.22,-0.098 0.22,-0.22l0,-3.268c0,-0.121 0.098,-0.219 0.219,-0.219l1.462,0c0.122,0 0.22,0.098 0.22,0.219l0,3.268c0,0.122 0.098,0.22 0.219,0.22l3.478,0c1.575,0 2.704,-0.893 2.704,-2.543c0,-0.96 -0.452,-1.508 -0.909,-1.813Zm-3.768,-2.719c0,-0.121 0.099,-0.22 0.22,-0.22l1.467,0c0.733,0 1.142,0.41 1.142,1.018c0,0.608 -0.409,1.017 -1.142,1.017l-1.438,0c-0.137,0 -0.249,-0.112 -0.249,-0.249l0,-1.566Zm1.799,5.537l-1.579,0c-0.121,0 -0.22,-0.098 -0.22,-0.219l0,-1.75c0,-0.111 0.09,-0.201 0.2,-0.201l1.599,-0.001c0.782,0 1.154,0.484 1.154,1.079c0,0.596 -0.372,1.092 -1.154,1.092Z" style="fill-rule:nonzero;"/></g></g></g></svg>